<svg width="69" height="69" viewBox="0 0 69 69" fill="none" xmlns="http://www.w3.org/2000/svg">
<path fill-rule="evenodd" clip-rule="evenodd" d="M34.5 69C53.5538 69 69 53.5538 69 34.5C69 15.4462 53.5538 0 34.5 0C15.4462 0 0 15.4462 0 34.5C0 53.5538 15.4462 69 34.5 69Z" fill="#5454D4" fill-opacity="0.1"/>
<path d="M42.3332 45.6666C43.4377 45.6666 44.3611 44.7634 44.1873 43.6726C43.5496 39.6686 40.7762 37.6666 34.9998 37.6666C29.2234 37.6666 26.45 39.6686 25.8123 43.6726C25.6386 44.7634 26.5619 45.6666 27.6665 45.6666H42.3332Z" stroke="#5454D4" stroke-width="2" stroke-linecap="round" stroke-linejoin="round"/>
<path fill-rule="evenodd" clip-rule="evenodd" d="M34.9998 33.6666C37.6665 33.6666 38.9998 32.3333 38.9998 28.9999C38.9998 25.6666 37.6665 24.3333 34.9998 24.3333C32.3332 24.3333 30.9998 25.6666 30.9998 28.9999C30.9998 32.3333 32.3332 33.6666 34.9998 33.6666Z" stroke="#5454D4" stroke-width="2" stroke-linecap="round" stroke-linejoin="round"/>
</svg>
