<svg width="69" height="69" viewBox="0 0 69 69" fill="none" xmlns="http://www.w3.org/2000/svg">
<path fill-rule="evenodd" clip-rule="evenodd" d="M34.5 69C53.5538 69 69 53.5538 69 34.5C69 15.4462 53.5538 0 34.5 0C15.4462 0 0 15.4462 0 34.5C0 53.5538 15.4462 69 34.5 69Z" fill="#FEDC5A" fill-opacity="0.1"/>
<path opacity="0.12" fill-rule="evenodd" clip-rule="evenodd" d="M41.9218 23.7897C41.1261 22.1245 39.2914 21.2424 37.5072 22.0938C35.723 22.9453 34.9629 24.9645 35.7099 26.7371C36.4569 28.5097 39.4583 32.9839 39.4583 32.9839C39.4583 32.9839 44.2945 30.6098 45.8278 29.4482C47.361 28.2866 47.7408 26.1514 46.5929 24.5283C45.445 22.9052 43.4435 22.7455 41.9218 23.7897Z" fill="#FFEA00"/>
<path d="M27.0001 45.7828H30.4805C30.9343 45.7828 31.3853 45.8368 31.8252 45.9448L35.5026 46.8384C36.3005 47.0328 37.1318 47.0517 37.938 46.8951L42.004 46.1041C43.0781 45.8949 44.0662 45.3805 44.8405 44.6273L47.7173 41.8289C48.5388 41.0311 48.5388 39.7365 47.7173 38.9374C46.9776 38.2179 45.8064 38.1369 44.9696 38.747L41.6169 41.1931C41.1367 41.5441 40.5525 41.733 39.9516 41.733H36.7141L38.7748 41.733C39.9364 41.733 40.8772 40.8177 40.8772 39.6878V39.2788C40.8772 38.3406 40.2208 37.5226 39.2855 37.2958L36.1049 36.5223C35.5873 36.3967 35.0572 36.3333 34.5243 36.3333C33.2379 36.3333 30.9093 37.3984 30.9093 37.3984L27.0001 39.0331M21.6667 38.4666L21.6667 46.1999C21.6667 46.9467 21.6667 47.32 21.8121 47.6053C21.9399 47.8561 22.1439 48.0601 22.3948 48.1879C22.68 48.3333 23.0533 48.3333 23.8001 48.3333H24.8667C25.6135 48.3333 25.9869 48.3333 26.2721 48.188C26.523 48.0601 26.7269 47.8561 26.8548 47.6053C27.0001 47.32 27.0001 46.9467 27.0001 46.1999V38.4666C27.0001 37.7199 27.0001 37.3465 26.8548 37.0613C26.7269 36.8104 26.523 36.6064 26.2721 36.4786C25.9869 36.3333 25.6135 36.3333 24.8667 36.3333H23.8001C23.0533 36.3333 22.68 36.3333 22.3948 36.4786C22.1439 36.6064 21.9399 36.8104 21.8121 37.0613C21.6667 37.3465 21.6667 37.7199 21.6667 38.4666ZM41.9219 23.7896C41.1262 22.1245 39.2915 21.2423 37.5073 22.0938C35.7231 22.9452 34.963 24.9644 35.71 26.737C36.1717 27.8326 37.4944 29.9599 38.4375 31.4253C38.786 31.9668 38.9602 32.2375 39.2147 32.3958C39.433 32.5317 39.7063 32.6049 39.9633 32.5964C40.2629 32.5865 40.5491 32.4392 41.1216 32.1445C42.6711 31.347 44.8803 30.166 45.8278 29.4481C47.3611 28.2865 47.7409 26.1514 46.593 24.5283C45.4451 22.9051 43.4436 22.7454 41.9219 23.7896Z" stroke="#FFEA00" stroke-width="3.33333" stroke-linecap="round" stroke-linejoin="round"/>
</svg>
