<svg width="69" height="69" viewBox="0 0 69 69" fill="none" xmlns="http://www.w3.org/2000/svg">
<path fill-rule="evenodd" clip-rule="evenodd" d="M34.5 69C53.5538 69 69 53.5538 69 34.5C69 15.4462 53.5538 0 34.5 0C15.4462 0 0 15.4462 0 34.5C0 53.5538 15.4462 69 34.5 69Z" fill="#FEDC5A" fill-opacity="0.1"/>
<path d="M39.0002 29L42.3335 32.3334M29.0002 45.6667L44.9193 29.7476C45.7003 28.9665 45.7003 27.7002 44.9193 26.9191L44.4144 26.4142C43.6333 25.6332 42.367 25.6332 41.586 26.4142L25.6668 42.3334V45.6667H29.0002ZM29.0002 45.6667H40.1717C41.7338 45.6667 43.0002 44.4004 43.0002 42.8383C43.0002 42.0881 42.7022 41.3687 42.1717 40.8383L41.6668 40.3334M25.0002 25.6667C27.6668 23 32.3335 24.3334 32.3335 27C32.3335 30.3334 24.3335 30.3334 24.3335 33.6667C24.3335 34.8346 25.0443 35.7008 25.9679 36.3334" stroke="#ECB241" stroke-width="2" stroke-linecap="round" stroke-linejoin="round"/>
</svg>
