<svg width="69" height="69" viewBox="0 0 69 69" fill="none" xmlns="http://www.w3.org/2000/svg">
<path fill-rule="evenodd" clip-rule="evenodd" d="M34.5 69C53.5538 69 69 53.5538 69 34.5C69 15.4462 53.5538 0 34.5 0C15.4462 0 0 15.4462 0 34.5C0 53.5538 15.4462 69 34.5 69Z" fill="#F04037" fill-opacity="0.1"/>
<path d="M47 32.3334L35 25.6667L23 32.3334L27 34.5556M47 32.3334L43 34.5556M47 32.3334L47.2278 32.4473C47.9053 32.7861 48.3333 33.4786 48.3333 34.2361V41.6665M27 34.5556L35 39.0001L43 34.5556M27 34.5556V42.5556L35 47.0001L43 42.5556L43 34.5556" stroke="#F04037" stroke-width="2" stroke-linecap="round" stroke-linejoin="round"/>
</svg>
