<svg width="69" height="69" viewBox="0 0 69 69" fill="none" xmlns="http://www.w3.org/2000/svg">
<path fill-rule="evenodd" clip-rule="evenodd" d="M34.5 69C53.5538 69 69 53.5538 69 34.5C69 15.4462 53.5538 0 34.5 0C15.4462 0 0 15.4462 0 34.5C0 53.5538 15.4462 69 34.5 69Z" fill="#5454D4" fill-opacity="0.1"/>
<path d="M35.0001 28.7631C32.9219 25.9946 26.7384 25.8604 21.6667 27.1971V45.4146C25.259 43.7332 31.7309 43.1925 35.0001 45.9987M35.0001 28.7631V45.9987M35.0001 28.7631C37.0783 25.9946 43.2617 25.8604 48.3334 27.1971V45.4146C44.7412 43.7332 38.2693 43.1925 35.0001 45.9987" stroke="#5454D4" stroke-width="2" stroke-linecap="round" stroke-linejoin="round"/>
</svg>
