<svg width="224" height="195" viewBox="0 0 224 195" fill="none" xmlns="http://www.w3.org/2000/svg">
<path d="M85.2011 55.3126C83.2108 68.2701 87.9446 80.8595 98.004 89.5153C107.482 97.6663 119.511 99.3281 131.453 95.7942C140.393 93.1438 147.688 87.6643 149.979 78.5036C152.669 67.7863 149.743 55.9542 147.526 45.4262C147.333 44.4902 145.859 44.8899 146.063 45.8259C149.635 62.8326 154.659 85.7185 133.691 93.4909C122.233 97.7399 109.709 97.0563 100.059 89.2945C89.8274 81.0593 84.6955 68.5646 86.6643 55.7123C86.8042 54.7657 85.341 54.3661 85.2011 55.3126Z" fill="#ECB241" fill-opacity="0.5"/>
<path d="M85.5122 62.0859C79.8424 63.1902 72.86 64.4838 69.7292 69.8477C66.9965 74.5385 67.868 80.4914 69.9552 85.2452C71.655 89.1262 74.6029 93.1754 79.1215 93.9852C85.2862 95.0896 92.2579 91.9974 97.4006 88.9369C98.2398 88.4425 97.4759 87.1489 96.6367 87.6537C92.9249 89.8624 89.1271 91.4821 84.8129 92.2078C77.766 93.3857 73.4947 90.1569 70.9987 83.8359C69.3634 79.7131 68.7072 74.6121 71.0418 70.6155C73.9466 65.6513 80.6708 64.568 85.9103 63.5373C86.8786 63.3374 86.4697 61.9071 85.5122 62.0859Z" fill="#ECB241" fill-opacity="0.5"/>
<path d="M117.907 97.8346C117.38 100.443 117.294 104.797 119.887 106.522C122.888 108.51 129.268 106.659 132.291 105.533C135.25 104.44 138.886 102.557 139.457 99.1599C139.876 96.6567 138.499 94.3955 136.046 93.7013C135.099 93.4384 134.701 94.8687 135.637 95.1317C140.941 96.6357 136.433 101.81 134.099 103.114C132.377 104.082 130.355 104.681 128.429 105.092C126.858 105.428 123.846 106.175 122.178 105.618C118.832 104.503 118.832 100.895 119.37 98.2238C119.564 97.2983 118.101 96.8986 117.907 97.8346Z" fill="#ECB241" fill-opacity="0.5"/>
<path d="M124.383 106.785C125.556 110.508 126.471 114.358 126.696 118.249C126.955 122.687 125.986 131.596 120.08 132.647C119.122 132.816 119.52 134.257 120.489 134.078C125.309 133.226 127.31 127.631 127.998 123.413C128.924 117.786 127.546 111.749 125.857 106.385C125.567 105.47 124.093 105.859 124.383 106.785Z" fill="#ECB241" fill-opacity="0.5"/>
<path d="M131.926 105.029C133.12 111.308 135.648 117.376 139.532 122.54C141.598 125.285 144.772 129.724 148.71 127.725C149.581 127.284 148.806 126.001 147.946 126.442C143.868 128.504 138.715 118.817 137.424 116.356C135.476 112.643 134.174 108.72 133.4 104.64C133.217 103.693 131.754 104.093 131.926 105.029Z" fill="#ECB241" fill-opacity="0.5"/>
<path d="M114.905 136.003C124.609 133.72 134.368 131.627 144.104 129.461C146.493 128.925 149.397 127.768 151.84 127.704C153.077 126.874 154.045 127.031 154.755 128.167C155.218 130.271 154.712 131.407 153.26 131.564C151.754 132.427 148.967 132.469 147.267 132.795C141.102 134.004 134.916 135.119 128.719 136.182C126.051 136.644 123.372 137.097 120.693 137.507C119.746 137.654 118.057 138.243 117.121 138.043C115.325 137.654 115.809 137.286 115.432 135.088C115.271 134.141 113.808 134.541 113.969 135.487C114.184 136.728 114.41 137.98 114.625 139.221C114.679 139.505 115.056 139.8 115.357 139.768C123.846 138.758 132.28 137.118 140.672 135.561C144.75 134.804 148.999 134.246 153.002 133.153C157.122 132.017 156.369 130.418 156.186 126.106C156.165 125.612 155.713 125.275 155.218 125.391C141.673 128.577 128.041 131.386 114.496 134.572C113.549 134.793 113.948 136.224 114.905 136.003Z" fill="#ECB241" fill-opacity="0.5"/>
<path d="M84.8885 66.0719C80.1331 67.3655 75.8081 68.901 73.6241 73.6023C72.1609 76.7576 72.4944 80.0706 73.6886 83.2363C77.0991 92.2287 87.9977 90.1988 94.5175 85.4134C95.2921 84.8455 94.5282 83.5518 93.7536 84.1303C87.8901 88.4424 77.82 90.6932 74.9689 82.2371C74.1835 79.9128 73.8177 77.5464 74.6354 75.1379C76.2707 70.3104 80.7786 68.7328 85.308 67.5022C86.2333 67.2498 85.8352 65.8194 84.8885 66.0719Z" fill="#ECB241" fill-opacity="0.5"/>
<path d="M148.461 52.3259C153.453 51.1585 159.865 49.3915 164.545 52.3995C168.774 55.1235 170.409 60.3822 170.646 65.0835C170.936 70.8892 169.129 75.6115 163.125 77.5046C158.402 78.9876 153.787 79.1769 148.913 78.6405C147.945 78.5353 147.945 80.0183 148.913 80.1235C154.841 80.7861 162.587 80.7124 167.665 77.1786C171.818 74.2863 172.496 68.5753 172.087 64.0002C171.657 59.2779 169.839 54.2611 165.74 51.4214C160.597 47.856 153.679 49.5808 148.063 50.8955C147.106 51.1164 147.514 52.5468 148.461 52.3259Z" fill="#ECB241" fill-opacity="0.5"/>
<path d="M149.15 56.1017C153.626 55.3654 158.112 54.3242 162.104 57.0272C164.643 58.752 165.848 61.2657 166.289 64.1685C166.762 67.3132 166.504 70.3633 163.567 72.3826C159.844 74.9489 154.562 75.2118 150.258 74.2863C149.301 74.076 148.892 75.5168 149.85 75.7167C158.349 77.5572 169.054 74.5177 167.86 64.5156C167.44 61.0449 166.117 58.0053 163.158 55.8913C158.768 52.7466 153.744 53.8404 148.752 54.6608C147.773 54.8185 148.182 56.2594 149.15 56.1017Z" fill="#ECB241" fill-opacity="0.5"/>
<path d="M87.2123 56.543C106.879 51.6734 127.019 49.5804 146.988 46.3306C147.956 46.1728 147.547 44.7424 146.579 44.9002C126.611 48.1396 106.47 50.2431 86.8034 55.1126C85.8567 55.344 86.2655 56.7744 87.2123 56.543Z" fill="#ECB241" fill-opacity="0.5"/>
<path d="M114.614 61.0762C112.839 64.5364 109.611 68.7434 109.041 72.5718C108.987 72.9188 109.084 73.2133 109.385 73.4131C111.15 74.5385 113.528 75.0223 115.496 75.706C115.776 75.8006 116.228 75.6428 116.357 75.3694C117.013 73.897 117.713 72.7085 118.659 71.3938C118.186 71.2676 117.713 71.1414 117.239 71.0152C117.39 72.3509 117.508 73.4552 117.734 74.7804C117.853 75.5061 119.144 79.4291 118.907 80.0496C118.315 81.6062 114.55 81.9743 112.957 82.7631C112.667 82.8999 112.506 83.3101 112.602 83.6045C113.345 85.8027 113.216 87.8325 115.432 88.3164C117.411 88.7476 121.285 87.0332 123.189 86.5599C126.363 85.7606 129.504 84.8772 132.646 83.9306C133.044 83.8149 133.291 83.4152 133.173 83.0156C132.839 81.8166 132.667 80.4598 132.033 79.366C131.903 79.1452 131.645 78.9979 131.376 78.9979C130.139 79.0084 128.633 80.0812 127.482 79.8498C124.943 79.324 124.695 76.5158 124.275 74.5596C123.447 70.6891 122.78 66.7872 121.704 62.9799C120.262 57.8579 119.036 57.7317 114.27 60.5188C113.431 61.0131 114.195 62.2962 115.034 61.8019C123.641 56.7641 120.574 79.3345 125.115 81.6062C125.846 81.9743 127.213 81.3328 127.89 81.2802C131.333 81.0067 131.86 82.3109 128.471 83.6045C125.771 84.6353 122.737 85.1611 119.918 85.8132C118.326 86.1813 117.304 86.7808 115.873 85.7711C112.925 83.7097 118.595 82.4266 120.144 82.3214C120.628 82.2899 121.026 81.8692 120.876 81.3854C119.854 77.9567 119.154 74.5806 118.756 71.0257C118.67 70.2895 117.788 70.0265 117.336 70.6471C116.562 71.7199 116.142 72.9925 114.883 73.4342C113.011 74.0968 111.333 72.5612 111.44 70.5419C111.58 68.0177 114.743 64.0947 115.916 61.823C116.368 60.971 115.055 60.2243 114.614 61.0762Z" fill="#ECB241" fill-opacity="0.5"/>
<path d="M142.77 53.1672C143.879 60.2559 146.256 71.5201 141.662 77.778C141.092 78.5563 142.405 79.303 142.975 78.5247C147.956 71.7305 145.428 60.4032 144.244 52.7675C144.094 51.8315 142.631 52.2311 142.77 53.1672Z" fill="#ECB241" fill-opacity="0.5"/>
<path d="M139.306 84.3198C137.972 85.8028 136.348 86.9597 134.465 87.6959C133.572 88.043 133.959 89.4838 134.874 89.1263C137.004 88.2954 138.865 87.0543 140.382 85.361C141.028 84.6563 139.963 83.5941 139.306 84.3198Z" fill="#ECB241" fill-opacity="0.5"/>
<path d="M133.69 98.4024C134.196 98.5076 134.271 99.065 134.11 99.4857C133.884 100.075 133.292 100.506 132.808 100.895C132.055 101.516 133.141 102.557 133.884 101.947C134.766 101.232 135.691 100.348 135.713 99.1386C135.723 98.15 135.121 97.1719 134.099 96.9615C133.141 96.7722 132.732 98.2026 133.69 98.4024Z" fill="#ECB241" fill-opacity="0.5"/>
<path d="M130.247 111.16C131.442 115.514 132.808 119.921 136.509 122.877C137.262 123.476 138.338 122.435 137.585 121.825C134.067 119.006 132.851 114.894 131.711 110.76C131.452 109.835 129.989 110.235 130.247 111.16Z" fill="#ECB241" fill-opacity="0.5"/>
<path d="M99.7421 0.783691C108.155 5.26412 117.634 7.32554 126.876 9.80765C156.677 17.7904 186.274 31.3474 205.263 55.1693C224.252 78.9913 229.804 114.835 211.891 139.456C204.553 149.553 194.01 157.031 182.95 163.057C170.158 170.03 155.87 175.415 141.238 174.689C125.025 173.89 110.296 165.781 94.8469 160.922C73.8567 154.317 51.1236 153.739 29.4879 157.83C20.7303 159.492 11.5854 162.226 5.82952 168.884C0.0736209 175.541 -0.335238 187.174 7.0775 192.001C12.4784 195.524 20.0848 194.199 25.2705 190.381C30.4562 186.564 33.6838 180.748 36.2874 174.931C38.9448 169 40.7952 161.206 35.9968 156.736C33.9312 154.811 31.0586 154.002 28.2614 153.455C19.1918 151.677 9.69188 152.035 0.783691 154.506" stroke="#ECB241" stroke-opacity="0.5" stroke-width="1.56701" stroke-miterlimit="10" stroke-linecap="round" stroke-dasharray="10.17 10.17"/>
</svg>
