<svg width="223" height="125" viewBox="0 0 223 125" fill="none" xmlns="http://www.w3.org/2000/svg">
<path d="M214.004 19.7963C207.67 21.6488 201.326 23.5012 194.992 25.3537C194.096 25.6154 194.477 26.9947 195.384 26.7228C201.717 24.8704 208.061 23.018 214.395 21.1655C215.281 20.9138 214.9 19.5346 214.004 19.7963Z" fill="#ECB241" fill-opacity="0.5"/>
<path d="M194.818 25.1926C179.771 20.199 164.715 15.2054 149.668 10.2119C148.865 9.95009 148.422 11.0978 149.112 11.5106C161.141 18.6788 173.16 25.857 185.188 33.0252C185.992 33.5085 186.723 32.2701 185.92 31.7969C173.891 24.6288 161.872 17.4505 149.844 10.2823C149.658 10.7152 149.473 11.1482 149.287 11.5811C164.334 16.5746 179.39 21.5682 194.437 26.5618C195.322 26.8638 195.703 25.4845 194.818 25.1926Z" fill="#ECB241" fill-opacity="0.5"/>
<path d="M214.9 17.823C188.35 12.4569 161.697 7.58416 134.962 3.20473C134.045 3.05371 133.654 4.4229 134.571 4.57392C161.306 8.95335 187.959 13.8261 214.508 19.1922C215.435 19.3734 215.827 18.0042 214.9 17.823Z" fill="#ECB241" fill-opacity="0.5"/>
<path d="M185.641 32.3305C178.298 32.7936 170.976 33.4883 163.674 34.4145C162.758 34.5353 162.747 35.9549 163.674 35.834C170.976 34.9078 178.288 34.2131 185.641 33.75C186.568 33.6896 186.578 32.2701 185.641 32.3305Z" fill="#ECB241" fill-opacity="0.5"/>
<path d="M132.634 4.68467C143.057 16.1517 154.086 27.0349 165.734 37.3241C166.424 37.9382 167.464 36.9314 166.764 36.3173C155.116 26.0382 144.086 15.155 133.664 3.6779C133.046 2.9933 132.016 4.00006 132.634 4.68467Z" fill="#ECB241" fill-opacity="0.5"/>
<path d="M195.991 27.2363C196.012 33.8508 196.393 40.435 197.165 47.0092C197.268 47.9053 198.731 47.9153 198.617 47.0092C197.855 40.435 197.464 33.8508 197.443 27.2363C197.443 26.3202 195.991 26.3202 195.991 27.2363Z" fill="#ECB241" fill-opacity="0.5"/>
<path d="M185.857 32.7735C189.421 37.757 192.974 42.7506 196.537 47.7341C197.073 48.4791 198.329 47.7743 197.794 47.0192C194.23 42.0357 190.677 37.0422 187.114 32.0587C186.589 31.3137 185.322 32.0184 185.857 32.7735Z" fill="#ECB241" fill-opacity="0.5"/>
<path d="M197.248 46.8482C190.832 41.9955 184.23 37.4047 177.433 33.0856C176.64 32.5822 175.919 33.8206 176.702 34.3139C183.396 38.5725 189.905 43.0828 196.228 47.8549C196.959 48.4086 197.989 47.4119 197.248 46.8482Z" fill="#ECB241" fill-opacity="0.5"/>
<path d="M1.03887 123.957C-0.89727 107.738 6.72368 91.3877 18.4538 79.7696C30.1839 68.1515 45.6421 60.7619 61.4608 55.5468C67.1868 53.6642 73.057 52.003 78.2681 49.0028C87.9282 43.4455 94.4061 33.7201 98.5152 23.5316C101.615 15.8399 102.285 4.85608 94.5606 1.49347C89.1641 -0.852294 82.5215 2.65126 79.9056 7.82605C77.3001 13.0008 77.8871 19.1924 79.504 24.7397C84.0353 40.2943 96.0126 53.0501 110.081 61.5472C124.159 70.0443 140.276 74.7257 156.404 78.3501C167.279 80.7965 178.422 82.8202 189.534 81.8637C200.647 80.9073 211.851 76.6587 219.091 68.3529C220.502 66.732 221.82 64.7185 221.419 62.6244C221.1 60.933 219.75 59.6444 218.463 58.4765C213.798 54.2179 209.122 49.9492 204.457 45.6906" stroke="#ECB241" stroke-opacity="0.5" stroke-width="1.5" stroke-miterlimit="10" stroke-linecap="round" stroke-dasharray="9.74 9.74"/>
<path d="M163.736 15.4168C164.828 17.4505 165.909 19.4741 167.001 21.5078C167.433 22.3233 168.69 21.5984 168.257 20.793C167.166 18.7593 166.084 16.7357 164.993 14.702C164.56 13.8866 163.304 14.6114 163.736 15.4168Z" fill="#ECB241" fill-opacity="0.5"/>
<path d="M169.256 15.9004C170.749 19.2429 172.243 22.5753 173.736 25.9178C174.107 26.7534 175.363 26.0285 174.992 25.203C173.499 21.8605 172.006 18.5281 170.513 15.1856C170.142 14.34 168.885 15.0648 169.256 15.9004Z" fill="#ECB241" fill-opacity="0.5"/>
<path d="M177.784 20.7631C179.195 23.7733 180.595 26.7936 182.006 29.8038C182.397 30.6395 183.654 29.9146 183.262 29.089C181.852 26.0788 180.451 23.0585 179.04 20.0483C178.649 19.2126 177.392 19.9375 177.784 20.7631Z" fill="#ECB241" fill-opacity="0.5"/>
<path d="M184.427 23.29C185.961 27.8104 187.609 32.2905 189.36 36.7303C189.689 37.576 191.1 37.2136 190.76 36.3478C189.009 31.9079 187.362 27.4278 185.827 22.9074C185.539 22.0416 184.128 22.4141 184.427 23.29Z" fill="#ECB241" fill-opacity="0.5"/>
<path d="M189.833 26.9748C191.254 31.2032 192.665 35.4316 194.087 39.6601C194.375 40.5259 195.786 40.1534 195.487 39.2775C194.066 35.0491 192.655 30.8207 191.234 26.5922C190.945 25.7365 189.535 26.109 189.833 26.9748Z" fill="#ECB241" fill-opacity="0.5"/>
<path d="M194.869 27.448C195.518 29.6226 195.94 31.8274 196.115 34.0926C196.187 34.9987 197.639 35.0088 197.567 34.0926C197.382 31.7066 196.949 29.3709 196.27 27.0755C196.012 26.1996 194.601 26.5721 194.869 27.448Z" fill="#ECB241" fill-opacity="0.5"/>
</svg>
