<svg width="446" height="404" viewBox="0 0 446 404" fill="none" xmlns="http://www.w3.org/2000/svg">
<path d="M140.96 246.644C137.927 243.899 132.63 239.39 130.448 238.178C130.328 238.125 130.149 238.079 130.022 238.079C130.059 239.377 143.829 251.114 145.376 251.159C145.331 250.688 142.948 248.44 140.96 246.644Z" fill="white"/>
<path d="M158.843 258C155.66 255.615 149.885 251.703 147.038 250.733C146.829 250.68 146.515 250.608 146.403 250.693C145.85 251.132 149.474 254.127 153.194 256.65C157.969 259.887 162.325 262.24 163.102 262.011C163.363 261.499 160.547 259.284 158.843 258Z" fill="white"/>
<path d="M99.3111 196.867C99.2364 196.808 99.1168 196.743 99.0122 196.743C98.9898 198.44 108.187 213.912 109.271 213.984C109.286 213.296 107.448 209.914 106.349 207.955C104.437 204.534 100.828 198.499 99.3111 196.867Z" fill="white"/>
<path d="M110.759 213.472C110.573 213.387 110.334 213.289 110.214 213.4C109.019 214.468 119.823 228.505 122.378 229.213C123.372 229.481 122.296 227.148 119.763 223.544C117.394 220.169 113.038 214.816 110.759 213.472Z" fill="white"/>
<path d="M135.903 237.457C133.288 234.39 128.252 229.574 125.226 228.486C124.972 228.427 124.628 228.348 124.434 228.473C122.349 229.738 134.528 242.267 138.294 242.732C139.676 242.903 138.697 240.734 135.903 237.457Z" fill="white"/>
<path d="M91.1969 178.82C91.3165 179.154 91.4958 179.645 91.7349 180.242C91.5481 179.763 91.3613 179.272 91.1895 178.813L91.1969 178.82Z" fill="white"/>
<path d="M104.592 202.581C106.041 203.302 105.787 200.445 104.002 195.93C102.462 192.031 99.2646 185.897 96.9708 184.462C96.8363 184.41 96.6421 184.324 96.4926 184.351C94.1017 184.757 101.289 200.943 104.592 202.581Z" fill="white"/>
<path d="M118.036 218.466C120.016 219.043 119.874 216.304 117.707 212.103C115.839 208.466 111.775 202.811 108.614 201.612C108.345 201.553 107.971 201.48 107.695 201.631C104.931 203.158 113.53 217.162 118.036 218.466Z" fill="white"/>
<path d="M133.832 232.601C136.716 233.44 136.941 230.773 134.333 226.664C131.867 222.785 127.003 218.067 123.447 217.228C123.096 217.189 122.625 217.143 122.266 217.313C118.867 218.892 127.945 230.898 133.832 232.601Z" fill="white"/>
<path d="M88.8719 166.061C88.7972 166.002 88.6851 165.93 88.588 165.91C87.146 166.697 92.8094 184.849 94.6474 185.327C95.3722 184.927 94.0348 179.823 93.6089 178.263C92.5554 174.449 90.3438 167.765 88.8719 166.061Z" fill="white"/>
<path d="M103.362 189.803C105.693 190.937 106.537 187.667 105.252 182.516C104.229 178.42 101.382 172.09 98.2663 170.852C98.0571 170.812 97.7657 170.76 97.5565 170.799C93.5517 171.572 98.3783 187.378 103.362 189.803Z" fill="white"/>
<path d="M116.476 206.08C119.808 207.567 121.115 204.35 119.277 199.199C117.888 195.3 114.115 189.35 110.065 188.341C109.796 188.315 109.422 188.282 109.161 188.341C104.416 189.33 110.162 203.256 116.476 206.08Z" fill="white"/>
<path d="M132.351 220.759C136.737 222.535 138.568 219.455 136.207 214.305C134.533 210.654 130.028 205.196 125.268 204.475C124.835 204.462 124.237 204.449 123.707 204.672C119.261 206.519 125.403 217.948 132.351 220.759Z" fill="white"/>
<path d="M93.1468 171.939C94.7906 173.23 95.5452 170.006 94.8204 164.75C94.2526 160.648 92.4744 154.226 90.2927 152.791C90.1432 152.738 89.934 152.666 89.7846 152.692C86.8109 153.158 89.6128 169.167 93.1468 171.939Z" fill="white"/>
<path d="M110.119 168.028C109.603 163.899 107.122 157.628 103.207 156.619C102.923 156.592 102.542 156.573 102.273 156.625C97.4318 157.621 99.4641 171.612 104.993 175.341C108.378 177.628 110.866 174.069 110.119 168.028Z" fill="white"/>
<path d="M124.203 184.77C123.269 180.649 119.817 174.495 115.073 173.742C114.737 173.735 114.273 173.735 113.945 173.807C108.438 175.052 111.337 187.936 118.032 191.946C122.589 194.685 125.645 191.127 124.203 184.77Z" fill="white"/>
<path d="M141.081 200.333C139.833 196.401 135.641 190.641 130.254 190.15C129.866 190.163 129.35 190.189 128.984 190.281C122.947 191.795 126.907 204.009 134.558 207.476C139.743 209.829 142.978 206.29 141.081 200.333Z" fill="white"/>
<path d="M95.4366 157.974C97.7677 159.744 99.7402 156.349 99.6431 150.701C99.5758 146.598 98.1637 140.268 95.2273 139.062C95.0181 139.023 94.7193 138.977 94.5101 139.016C90.326 139.777 91.0582 154.665 95.4366 157.974Z" fill="white"/>
<path d="M118.202 152.909C118.113 148.761 115.953 142.594 111.448 141.847C111.276 141.847 111.052 141.828 110.88 141.841C104.895 142.214 104.223 154.842 109.924 159.855C114.026 163.466 118.359 159.829 118.202 152.909Z" fill="white"/>
<path d="M131.961 169.161C131.461 164.999 128.382 158.912 123.13 158.414C122.935 158.42 122.674 158.414 122.472 158.44C115.703 159.148 116.248 171.874 123.249 176.592C128.24 179.96 132.805 176.068 131.961 169.161Z" fill="white"/>
<path d="M148.63 184.803C147.756 180.648 143.879 174.685 137.991 174.436C137.774 174.455 137.475 174.462 137.266 174.495C130.31 175.458 131.319 187.273 138.768 192.057C144.798 195.923 150.14 191.991 148.63 184.803Z" fill="white"/>
<path d="M100.631 143.105C103.604 146.126 107.198 142.627 107.751 136.179C108.11 132.089 106.974 125.897 103.365 124.934C103.223 124.92 103.044 124.894 102.902 124.894C97.881 124.973 96.1849 138.584 100.631 143.105Z" fill="white"/>
<path d="M118.101 144.475C122.33 148.689 128.031 144.888 128.434 137.581C128.666 133.453 126.798 127.418 121.912 126.933C114.597 127.208 113.073 139.469 118.101 144.475Z" fill="white"/>
<path d="M141.897 153.276C141.725 149.101 138.945 143.112 133.319 142.85C125.101 143.479 124.757 155.897 131.003 160.7C136.203 164.704 142.211 160.609 141.897 153.276Z" fill="white"/>
<path d="M146.101 175.825C152.325 180.537 159.251 176.343 158.242 168.472C157.704 164.285 154.133 158.374 147.872 158.354C139.346 159.278 139.406 170.753 146.101 175.825Z" fill="white"/>
<path d="M118.26 121.533C118.933 117.483 118.051 111.467 113.979 110.759C107.501 110.687 104.856 123.82 109.026 128.387C112.291 131.959 117.125 128.374 118.26 121.533Z" fill="white"/>
<path d="M171.057 245.596C176.16 246.736 178.185 243.905 175.39 239.541C173.41 236.448 168.106 232.024 162.494 231.854C161.732 231.9 160.948 231.952 160.178 232.424C155.845 235.078 163.062 243.82 171.057 245.596Z" fill="white"/>
<path d="M180.377 226.768C178.793 223.36 173.757 218.57 167.519 218.603C166.936 218.668 166.144 218.747 165.404 219.055C159.711 221.42 164.194 230.523 172.457 233.38C178.823 235.575 182.895 232.181 180.377 226.768Z" fill="white"/>
<path d="M187.916 212.326C186.669 208.611 181.864 203.493 175.088 203.742C174.841 203.774 174.512 203.801 174.266 203.847C166.809 205.236 168.176 214.96 176.418 219.154C183.725 222.87 190.173 219.043 187.916 212.326Z" fill="white"/>
<path d="M184.778 187.318C184.517 187.364 184.158 187.404 183.896 187.463C175.842 189.173 176.298 199.723 184.614 204.062C191.928 207.882 199.31 203.452 197.555 196.29C196.576 192.299 191.966 186.866 184.778 187.318Z" fill="white"/>
<path d="M172.285 255.889C175.782 256.289 176.215 253.963 173.271 250.595C170.858 247.836 165.262 243.786 160.375 243.412C159.725 243.432 159.053 243.445 158.492 243.825C155.033 246.171 165.224 255.077 172.285 255.889Z" fill="white"/>
<path d="M176.109 264.331C178.059 264.285 177.305 262.522 174.234 259.94C171.552 257.679 165.686 253.885 161.375 253.308C160.837 253.289 160.284 253.262 159.941 253.557C157.669 255.471 171.111 264.435 176.109 264.331Z" fill="white"/>
<path d="M152.524 221.441C159.106 224.285 163.395 220.53 160.87 214.141C159.286 210.143 154.175 204.403 147.764 204.174C147.309 204.206 146.696 204.252 146.255 204.37C139.501 206.146 143.715 217.634 152.524 221.441Z" fill="white"/>
<path d="M151.332 234.449C156.51 236.002 158.662 232.739 155.838 227.608C153.813 223.938 148.396 218.552 142.665 218.086C142.142 218.1 141.425 218.119 140.79 218.375C135.343 220.609 142.732 231.874 151.332 234.449Z" fill="white"/>
<path d="M93.5733 133.237C93.9918 128.847 93.6107 122.005 91.4439 120.537C91.2796 120.485 91.0479 120.419 90.8761 120.445C87.2076 121.002 86.1615 138.132 89.6209 141.042C91.2497 142.418 93.0279 138.919 93.5733 133.237Z" fill="white"/>
<path d="M86.2936 133.676C86.1965 133.611 86.062 133.506 85.9424 133.519C83.7383 133.729 84.732 152.372 87.0632 154.515C88.0494 155.42 88.6994 152.097 88.5799 146.789C88.4753 142.366 87.6982 135.374 86.2936 133.676Z" fill="white"/>
<path d="M167.701 199.043C166.595 195.071 162.142 189.482 155.724 189.488C155.253 189.541 154.633 189.613 154.185 189.744C147.408 191.71 149.455 202.26 157.397 206.343C164.002 209.737 169.584 205.779 167.701 199.043Z" fill="white"/>
<path d="M164.771 190.177C171.682 194.502 178.877 190.098 177.383 182.451C176.568 178.27 172.354 172.484 165.555 172.706C165.301 172.739 164.965 172.772 164.711 172.818C156.993 174.305 157.03 185.334 164.771 190.177Z" fill="white"/>
<path d="M152.323 244.993C155.648 245.609 156.014 243.125 153.167 239.337C150.858 236.271 145.561 231.664 141.003 231.015C140.398 230.995 139.778 230.982 139.255 231.356C136.147 233.61 145.92 243.807 152.323 244.993Z" fill="white"/>
<path d="M156.342 254.331C158.076 254.39 157.224 252.392 154.28 249.475C151.508 246.717 145.942 242.47 142.236 241.638C141.75 241.586 141.287 241.533 141.025 241.828C139.27 243.781 152.009 254.181 156.342 254.331Z" fill="white"/>
<mask id="mask0_90_235" style="mask-type:luminance" maskUnits="userSpaceOnUse" x="83" y="115" width="4" height="21">
<path d="M83.3447 115.623H86.4753V135.754H83.3447V115.623Z" fill="white"/>
</mask>
<g mask="url(#mask0_90_235)">
<path d="M85.8132 116.082C85.7982 116.036 85.7684 115.983 85.7534 115.944C85.7086 115.944 85.6488 115.944 85.604 115.937C84.4534 117.641 83.3401 133.185 84.2367 135.059C84.2815 135.059 84.3413 135.059 84.3861 135.059C84.8942 134.253 85.3126 130.38 85.5218 128.139C85.8655 124.384 86.254 117.785 85.8132 116.082Z" fill="white"/>
</g>
<path d="M90.4629 115.269C91.3146 111.317 92.0244 105.098 90.9411 103.65C90.8514 103.591 90.7169 103.512 90.6048 103.525C88.2363 103.755 85.1954 120.373 87.1828 122.241C88.0271 123.034 89.4393 120.039 90.4629 115.269Z" fill="white"/>
<path d="M98.498 102.129C99.7607 98.2497 100.784 92.234 99.1106 91.0086C99.0359 90.9889 98.9463 90.9431 98.8641 90.9365C95.599 90.4581 90.7574 105.353 93.0437 108.839C94.2317 110.648 96.7272 107.568 98.498 102.129Z" fill="white"/>
<path d="M101.871 95.3997C103.276 97.6539 106.75 94.5085 109.164 88.8008C110.763 85.0196 112.04 79.2464 109.873 78.2569C105.809 77.6212 99.3834 91.3958 101.871 95.3997Z" fill="white"/>
<path d="M101.289 118.925C102.103 114.921 102.066 108.788 99.451 107.667C99.3464 107.647 99.2045 107.615 99.0999 107.608C94.871 107.411 91.7628 121.684 95.1399 125.786C97.105 128.172 100.094 124.83 101.289 118.925Z" fill="white"/>
<path d="M103.867 111.506C106.108 114.41 110.255 111.002 112.078 104.744C113.221 100.812 113.416 94.8879 110.255 94.0098C104.622 93.6167 100.684 107.391 103.867 111.506Z" fill="white"/>
<path d="M141.1 120.963C141.578 116.894 139.935 111.048 134.816 110.806C127.621 111.383 124.827 122.673 129.116 127.706C133.262 132.569 140.211 128.663 141.1 120.963Z" fill="white"/>
<path d="M154.263 135.976C154.33 131.834 151.789 125.989 145.917 125.969C137.683 126.887 135.987 138.263 141.568 143.296C146.783 147.988 154.135 143.748 154.263 135.976Z" fill="white"/>
<path d="M157.024 158.466C163.136 162.942 170.832 158.394 170.301 150.616C170.017 146.428 166.685 140.622 160.17 140.832C151.189 142.071 150.404 153.604 157.024 158.466Z" fill="white"/>
<path d="M177.14 155.288C168.204 156.742 167.577 167.522 174.174 172.516C181.003 177.692 189.857 172.994 188.744 164.789C188.176 160.589 184.193 154.855 177.14 155.288Z" fill="white"/>
<path d="M127.167 95.511C120.539 95.7993 116.781 107.759 120.427 112.431C123.625 116.54 129.58 112.837 131.216 105.721C132.135 101.749 131.478 95.9631 127.167 95.511Z" fill="white"/>
<path d="M115.075 96.9659C117.399 100.354 122.517 96.9069 124.871 90.3801C126.245 86.5531 126.634 80.8716 123.175 80.249C117.212 80.2294 112.139 92.6802 115.075 96.9659Z" fill="white"/>
<path d="M132.353 175.852L132.279 175.963L132.301 175.969L132.353 175.852Z" fill="white"/>
<path d="M136.76 191.644L136.893 191.748L136.775 191.644C136.767 191.644 136.767 191.644 136.76 191.644Z" fill="white"/>
<path d="M192.474 243.296C199.049 245.57 203.599 242.45 201.014 237.444C199.489 234.495 194.603 230.445 188.529 230.681C187.893 230.766 187.101 230.871 186.354 231.205C181.274 233.466 184.935 240.701 192.474 243.296Z" fill="white"/>
<path d="M191.494 254.954C196.493 255.806 198.548 253.171 195.798 249.423C194.027 247.011 189.111 243.198 183.447 243.257C183.074 243.276 181.931 243.342 181.049 243.905C177.059 246.435 183.896 253.663 191.494 254.954Z" fill="white"/>
<path d="M166.779 119.201C167.018 115.315 164.806 109.915 159.12 110.066C152.187 110.701 148.78 120.537 153.681 125.773C158.351 130.754 166.308 126.756 166.779 119.201Z" fill="white"/>
<path d="M148.228 95.7204C141.377 96.5133 138.194 106.723 141.944 111.264C145.635 115.733 152.554 112.221 153.884 105.203C154.616 101.323 153.346 95.8252 148.228 95.7204Z" fill="white"/>
<path d="M88.7404 103.505C89.5174 103.138 90.8847 99.3832 91.6319 97.1814C91.9307 96.3099 94.5159 88.6166 94.1274 86.7424C94.0975 86.6834 94.0302 86.6113 93.963 86.5917C93.9256 86.6048 93.8808 86.6179 93.8435 86.6375C92.0727 87.686 87.403 103.132 88.7404 103.505Z" fill="white"/>
<path d="M208.388 223.505C207.17 220.477 202.933 216.146 196.239 216.598C195.738 216.683 195.066 216.788 194.58 216.939C188.334 218.898 190.157 226.84 197.584 230.019C203.987 232.751 210.898 229.737 208.388 223.505Z" fill="white"/>
<path d="M181.377 270.576C182.304 270.445 180.227 268.885 177.97 267.476C175.407 265.871 169.677 262.647 166.292 261.913C165.889 261.867 165.537 261.821 165.448 262.024C164.813 263.433 178.807 270.943 181.377 270.576Z" fill="white"/>
<path d="M192.254 264.292C195.765 264.508 196.243 262.601 193.389 259.763C191.514 257.902 186.575 254.344 181.285 254.2C180.583 254.246 179.911 254.285 179.358 254.652C176.13 256.775 185.649 263.892 192.254 264.292Z" fill="white"/>
<path d="M133.641 96.6249C136.211 99.9473 142.203 97.4047 144.183 90.714C144.908 88.2632 145.707 81.8281 140.761 81.5135C134.508 82.0312 130.495 92.5489 133.641 96.6249Z" fill="white"/>
<path d="M99.6593 85.0129C100.974 82.1689 103.238 76.4284 102.357 75.0785C102.312 75.0523 102.259 75.0064 102.207 74.9867C100.197 74.3773 93.8016 88.4467 95.012 90.8386C95.6023 91.9985 97.5598 89.5542 99.6593 85.0129Z" fill="white"/>
<path d="M173.177 124.416C164.727 125.786 163.95 135.766 168.642 140.065C173.67 144.678 182.561 141.434 182.33 133.243C182.188 127.863 178.078 123.905 173.177 124.416Z" fill="white"/>
<path d="M208.059 178.427C207.327 174.764 203.651 169.535 196.485 170.157C188.005 171.337 187.871 181.651 194.438 185.943C200.722 190.046 209.635 186.383 208.059 178.427Z" fill="white"/>
<path d="M205.158 214.809C212.077 218.623 219.735 214.678 217.957 208.217C216.709 203.675 211.143 200.281 206.04 200.943C205.778 200.989 205.435 201.041 205.173 201.1C198.157 202.745 198.142 210.949 205.158 214.809Z" fill="white"/>
<path d="M122.533 66.0609C118.117 65.8184 112.095 77.3715 113.769 80.7659C114.979 83.2168 118.976 80.4842 121.681 75.3466C123.34 72.2011 125.036 66.8997 122.533 66.0609Z" fill="white"/>
<path d="M195.621 271.782C197.339 271.657 196.756 270.255 194.201 268.368C190.727 265.805 185.131 263.466 182.224 263.361C181.694 263.368 181.186 263.381 180.857 263.649C178.675 265.458 190.817 272.149 195.621 271.782Z" fill="white"/>
<path d="M136.896 67.4053C131.942 67.6871 126.369 77.2152 128.617 81.5664C130.411 85.033 135.828 81.8089 138.271 75.8194C139.608 72.5625 140.064 67.7919 136.896 67.4053Z" fill="white"/>
<path d="M104.294 78.171C104.944 79.6979 107.829 76.9915 110.451 72.3847C112.207 69.3113 114.276 64.3244 113.133 63.3939C113.126 63.3939 113.118 63.3873 113.111 63.3808C110.459 62.4765 102.965 75.0583 104.294 78.171Z" fill="white"/>
<path d="M189.947 138.493C182.348 139.541 180.174 149.299 186.473 154.076C192.652 158.762 201.027 154.332 200.265 146.789C199.884 143.015 196.425 137.956 189.947 138.493Z" fill="white"/>
<path d="M221.479 247.155C219.895 243.781 214.254 241.035 209.883 241.5C209.487 241.559 208.949 241.651 208.568 241.769C203.719 243.289 204.929 249.036 212.356 251.801C218.983 254.272 223.384 251.192 221.479 247.155Z" fill="white"/>
<path d="M216.142 258.216C214.491 255.995 209.59 253.033 204.666 253.23C203.777 253.308 203.052 253.524 202.507 253.878C199.032 256.093 204.352 261.499 211.263 262.771C216.576 263.747 218.279 261.08 216.142 258.216Z" fill="white"/>
<path d="M172.659 94.278C166.936 94.9465 162.797 103.492 167.339 108.4C171.546 112.928 178.868 109.37 179.593 102.456C179.966 98.8652 177.77 94.029 172.659 94.278Z" fill="white"/>
<path d="M167.123 88.8796C168.012 84.3842 165.576 80.5244 161.998 80.7865C156.013 81.6712 152.24 90.4457 155.975 94.797C159.547 98.9647 165.957 94.7118 167.123 88.8796Z" fill="white"/>
<path d="M104.357 68.6952C105.105 67.4829 108.795 61.382 108.661 59.8551C108.646 59.8289 108.631 59.7896 108.601 59.77C107.443 59.0163 99.6727 71.9717 100.285 73.6362C100.532 74.285 102.093 72.3977 104.357 68.6952Z" fill="white"/>
<path d="M147.711 80.7274C149.967 84.1874 156.019 81.5531 157.887 75.0197C158.739 72.0511 158.612 67.6082 154.771 67.5492C149.205 68.2045 145.26 76.979 147.711 80.7274Z" fill="white"/>
<path d="M186.498 107.863C179.796 108.787 177.114 117.935 182.262 122.267C187.267 126.467 195.03 122.293 194.851 115.504C194.769 112.287 192.423 107.365 186.498 107.863Z" fill="white"/>
<path d="M228.799 233.676C227.2 230.059 222.231 227.588 217.719 228.171C217.278 228.25 216.68 228.362 216.262 228.499C210.598 230.282 211.846 236.756 218.369 239.489C224.921 242.228 231.055 238.807 228.799 233.676Z" fill="white"/>
<path d="M213.544 267.581C210.757 265.058 205.774 263.131 202.426 263.288C201.874 263.341 200.94 263.432 200.417 263.917C198.183 265.982 206.484 271.152 212.259 271.296C215.464 271.375 216.01 269.809 213.544 267.581Z" fill="white"/>
<path d="M136.546 53.8994C132.87 53.6045 126.026 63.2178 127.394 66.7565C128.358 69.2401 132.594 67.2218 135.784 61.6713C137.197 59.2008 139.176 54.4105 136.546 53.8994Z" fill="white"/>
<path d="M200.928 277.456C201.743 277.312 200.518 276.355 197.648 274.907C196.946 274.553 190.64 271.408 186.658 270.91C186.239 270.89 185.843 270.87 185.709 271.047C184.805 272.233 198.313 277.921 200.928 277.456Z" fill="white"/>
<path d="M238.498 219.212C237.699 216.382 234.142 212.45 227.575 213.203C227.575 213.21 227.575 213.21 227.575 213.21H227.567C227.56 213.21 227.56 213.21 227.56 213.21C227.56 213.21 227.56 213.21 227.552 213.21C226.551 213.413 224.459 213.839 223.047 215.523C219.662 219.54 224.242 227.24 233.074 226.211H233.081H233.089H233.096C239.866 224.842 238.655 219.783 238.498 219.212Z" fill="white"/>
<path d="M228.779 191.402C228.136 188.158 224.482 183.289 217.422 184.043C209.203 185.733 209.248 194.58 215.658 198.289C222.233 202.09 230.079 197.968 228.779 191.402Z" fill="white"/>
<path d="M209.036 152.444C201.445 153.676 199.839 163.27 206.511 167.536C212.907 171.631 220.953 167.018 219.751 159.954C219.048 155.819 215.058 151.782 209.036 152.444Z" fill="white"/>
<path d="M96.254 79.9153C97.3598 77.5824 99.9749 71.9926 100.304 70.6034C100.311 70.5641 100.311 70.5182 100.311 70.4854C100.289 70.4854 100.251 70.4854 100.221 70.4854C99.1231 71.6715 92.9964 84.4303 93.5045 85.2167C93.6689 85.0135 94.0499 84.5483 96.254 79.9153Z" fill="white"/>
<path d="M184.958 273.296C177.718 269.999 175.656 269.2 174.587 268.859C174.58 268.859 174.58 268.859 174.58 268.859C174.475 268.833 174.333 268.794 174.228 268.781C174.221 268.807 174.214 268.833 174.206 268.853C175.715 270.104 188.357 275.478 189.852 275.681C189.792 275.569 189.747 275.484 184.958 273.296Z" fill="white"/>
<path d="M116.127 65.1306C116.658 66.782 119.609 65.1568 122.986 60.1765C123.18 59.8882 127.723 53.1451 125.765 52.0769C122.381 51.6117 115.268 62.4766 116.127 65.1306Z" fill="white"/>
<path d="M214.865 277.817C214.872 277.817 214.872 277.817 214.872 277.817C214.88 277.817 214.88 277.817 214.88 277.817C214.992 277.804 215.149 277.804 215.261 277.791C216.882 277.627 216.441 276.592 214.14 275.143C210.89 273.099 206.003 271.461 203.246 271.487C202.761 271.52 202.253 271.546 201.931 271.775C200.176 273.053 209.097 277.712 214.865 277.817Z" fill="white"/>
<path d="M151.16 54.4886C150.607 54.5411 149.778 54.6197 148.366 55.6289C143.315 59.2331 140.476 67.7979 145.242 68.0993C145.25 68.0993 145.25 68.0993 145.25 68.0993H145.257C149.202 67.7455 151.78 62.6013 152.064 62.0116C153.805 58.3812 153.857 54.4952 151.16 54.4886Z" fill="white"/>
<path d="M119.454 49.1282C118.199 48.8661 108.755 59.8687 110.017 62.1229C110.017 62.1229 110.017 62.1229 110.017 62.1295C110.025 62.1295 110.025 62.1295 110.025 62.1295C111.116 62.6865 114.934 57.5948 115.359 57.0115C116.727 55.1767 120.134 50.1832 119.573 49.1872C119.536 49.1675 119.491 49.1348 119.454 49.1282Z" fill="white"/>
<path d="M203.135 121.296C194.991 122.98 194.834 131.945 199.653 135.53C204.659 139.258 213.042 135.89 212.489 128.747C212.116 123.911 207.917 120.569 203.135 121.296Z" fill="white"/>
<path d="M222.062 134.489C215.3 136.036 213.343 143.67 218.633 147.877C224.722 152.733 232.597 147.903 231.969 141.586C231.633 138.139 228.002 133.762 222.062 134.489Z" fill="white"/>
<path d="M240.523 173.079C239.836 168.564 234.613 165.091 229.779 165.923C222.838 167.535 221.179 175.491 226.925 179.658C233.694 184.567 241.524 179.613 240.523 173.079Z" fill="white"/>
<path d="M249.564 202.764C248.72 198.858 243.594 195.916 239.007 196.722C232.193 198.288 230.878 205.372 236.75 208.95C243.452 213.039 250.782 208.452 249.564 202.764Z" fill="white"/>
<path d="M129.939 52.4312C130.275 54.5478 134.175 51.7759 137.134 48.0275C139.256 45.3342 141.415 41.3369 139.95 40.8126C136.835 40.7209 129.445 49.2988 129.939 52.4312Z" fill="white"/>
<path d="M241.014 255.241C239.759 252.522 234.776 250.34 230.958 250.838C230.599 250.897 230.121 250.988 229.777 251.093C225.72 252.397 226.273 256.814 232.138 259.062C238.138 261.362 242.621 258.708 241.014 255.241Z" fill="white"/>
<path d="M194.277 276.67C194.173 276.657 194.031 276.644 193.919 276.644C193.904 276.664 193.889 276.697 193.874 276.723C195.159 277.83 206.314 281.264 208.855 281.605C208.877 281.585 208.907 281.559 208.929 281.539C208.511 281.303 207.024 280.74 204.529 279.868C203.744 279.593 196.78 277.168 194.277 276.67Z" fill="white"/>
<path d="M142.355 53.303C143.192 55.5966 147.301 53.1982 150.2 48.7225C151.776 46.2847 153.443 42.2939 151.186 41.9466C147.51 42.1825 141.234 50.2428 142.355 53.303Z" fill="white"/>
<path d="M220.476 282.475C221.096 282.161 218.443 281.04 217.621 280.706C214.431 279.408 209.589 277.954 207.333 277.868C206.974 277.875 206.601 277.882 206.489 278.039C205.689 279.199 218.765 283.347 220.476 282.475Z" fill="white"/>
<path d="M185.98 78.8C180.332 79.9075 177.537 87.5222 181.385 91.3426C185.128 95.0516 191.681 91.6113 192.167 85.6742C192.503 81.6244 189.551 78.3479 185.98 78.8Z" fill="white"/>
<path d="M175.541 66.2449C170.505 67.1296 167.113 74.3904 169.96 78.1912C172.769 81.9461 178.888 78.8399 180.039 73.0863C180.816 69.1938 178.672 65.9304 175.541 66.2449Z" fill="white"/>
<path d="M230.489 269.121C235.435 270.025 237.4 267.836 235.539 265.412C233.746 263.092 229.002 261.303 225.587 261.663C224.937 261.762 224.325 261.86 223.697 262.24C220.686 264.055 224.623 268.039 230.489 269.121Z" fill="white"/>
<path d="M122.113 50.1969C122.33 51.3503 124.96 49.4564 128.09 45.885C128.142 45.8195 133.402 39.7972 132.409 38.8274C130.332 38.3293 121.672 47.8902 122.113 50.1969Z" fill="white"/>
<path d="M231.557 276.723C234.344 276.69 234.86 275.439 232.775 273.741C231.117 272.398 227.201 270.471 223.182 270.675C222.704 270.721 221.822 270.852 221.366 271.251C219.371 272.994 226.417 276.782 231.557 276.723Z" fill="white"/>
<path d="M168.568 53.997C164.197 54.377 159.96 62.0834 162.284 65.4452C164.189 68.204 169.464 65.8711 171.175 60.4648C172.012 57.8305 172.005 53.9314 168.568 53.997Z" fill="white"/>
<path d="M199.639 91.5458C193.752 92.4763 191.353 100.386 195.814 104.174C199.871 107.627 207.29 104.593 207.089 98.1316C206.991 95.1762 204.937 90.9822 199.639 91.5458Z" fill="white"/>
<path d="M248.608 242.778C247.779 240.707 244.402 237.666 238.895 238.322C238.506 238.381 237.916 238.505 237.318 238.721C232.694 240.438 233.598 245.563 238.902 247.712C244.521 249.986 250.326 247.037 248.608 242.778Z" fill="white"/>
<path d="M112.376 53.1125C114.602 50.2619 117.344 46.6315 117.71 45.5568C117.695 45.5241 117.673 45.4782 117.658 45.4454C116.351 45.8386 108.483 56.2514 108.797 57.1689C108.946 57.123 109.335 57.005 112.376 53.1125Z" fill="white"/>
<path d="M123.431 42.7583C123.483 42.7058 128.855 37.0112 128.863 35.9365C128.848 35.9234 128.825 35.9038 128.81 35.8841C127.286 35.8251 118.104 45.812 118.881 46.677C119.56 46.7229 122.019 44.2458 123.431 42.7583Z" fill="white"/>
<path d="M214.77 282.49C214.418 282.47 214.418 282.47 214.321 282.549C215.158 283.269 226.926 285.825 228.017 285.524C227.875 285.452 227.628 285.334 224.303 284.521C219.514 283.355 216.301 282.673 214.77 282.49Z" fill="white"/>
<path d="M242.686 147.588C236.238 148.905 234.572 156.552 239.906 160.373C245.637 164.475 253.49 160.405 252.444 153.872C251.943 150.733 248.588 146.703 242.686 147.588Z" fill="white"/>
<path d="M253.401 234.967C253.408 234.967 253.408 234.967 253.408 234.967C253.408 234.967 253.408 234.967 253.415 234.967C253.423 234.967 253.423 234.967 253.423 234.967C253.423 234.967 253.423 234.967 253.43 234.967V234.96C259.46 233.643 258.511 229.377 258.384 228.892C257.756 226.533 254.716 223.315 248.903 224.122C246.616 224.541 245.391 225.603 244.861 226.205C241.528 229.98 246.153 235.943 253.393 234.973C253.393 234.973 253.393 234.973 253.401 234.967Z" fill="white"/>
<path d="M165.249 42.031C161.707 42.2473 156.836 49.2066 158.016 52.3783C158.995 55.0192 163.508 53.145 165.966 48.0926C167.094 45.7859 167.886 42.1031 165.249 42.031Z" fill="white"/>
<path d="M136.233 38.6436C136.189 39.9674 139.132 38.1718 142.524 34.797C144.273 33.067 147.598 29.299 146.753 28.7354C144.572 28.5388 136.316 36.3173 136.233 38.6436Z" fill="white"/>
<path d="M234.438 282.11C235.454 281.841 234.841 281.035 232.884 280.052C231.232 279.233 227.213 277.693 223.85 277.765C223.843 277.765 223.843 277.765 223.843 277.765C223.843 277.765 223.843 277.765 223.836 277.765H223.828C223.828 277.765 223.828 277.765 223.821 277.765C223.425 277.798 222.752 277.857 222.528 278.158C221.4 279.652 231.307 282.942 234.438 282.11Z" fill="white"/>
<path d="M216.084 104.2C216.084 104.207 216.084 104.207 216.084 104.207C216.077 104.207 216.077 104.207 216.077 104.207C216.077 104.207 216.077 104.207 216.07 104.207C216.062 104.207 216.062 104.207 216.062 104.207C216.062 104.207 216.062 104.207 216.055 104.207C216.047 104.207 216.047 104.207 216.047 104.213C208.837 105.917 208.897 113.977 213.275 116.926C218.251 120.275 225.05 116.382 224.468 110.517C224.191 107.693 221.666 103.479 216.084 104.2Z" fill="white"/>
<path d="M206.84 281.296L207.304 281.414C206.96 281.323 206.601 281.231 206.272 281.139L206.84 281.296Z" fill="white"/>
<path d="M261.336 184.876C260.485 180.878 255.972 178.237 251.489 179.109C244.219 180.904 243.905 188.526 249.359 191.632C255.21 194.954 262.592 190.793 261.336 184.876Z" fill="white"/>
<path d="M145.218 40.1375C145.584 41.7233 149.051 39.6525 152.212 35.9501C153.713 34.2004 156.321 30.4586 154.812 30.0982C152.421 29.9212 144.583 37.3983 145.218 40.1375Z" fill="white"/>
<path d="M269.721 213.393C269.325 210.373 265.433 207.529 260.486 208.276C254.778 209.665 253.149 215.189 257.528 218.289C263.087 222.214 270.379 218.393 269.721 213.393Z" fill="white"/>
<path d="M238.981 285.772C239.459 285.543 237.315 284.861 236.642 284.658C233.908 283.826 229.559 282.908 227.691 282.928C227.415 282.941 226.959 282.967 226.959 283.157C226.952 284.108 237.628 286.434 238.981 285.772Z" fill="white"/>
<path d="M234.921 116.658C234.913 116.658 234.913 116.658 234.913 116.658C234.913 116.658 234.913 116.658 234.906 116.658H234.898C234.891 116.664 234.891 116.664 234.891 116.664C234.891 116.664 234.891 116.664 234.883 116.664C228.592 118.27 227.277 125.852 232.724 129.141C238.432 132.588 244.671 127.831 243.774 122.457C243.289 119.574 239.949 115.95 234.921 116.658Z" fill="white"/>
<path d="M157.672 40.1765C158.284 42.0114 161.946 39.8685 164.546 36.1529C165.749 34.436 167.602 30.8122 165.629 30.5959C162.409 30.9433 156.828 37.6601 157.672 40.1765Z" fill="white"/>
<path d="M131.474 36.1664C131.474 36.1664 131.474 36.1664 131.474 36.173C131.482 36.173 131.482 36.173 131.482 36.173C132.251 36.4547 135.823 33.2962 136.891 32.3263C137.115 32.1297 142.218 27.4902 141.972 26.6841C141.942 26.6776 141.912 26.6579 141.882 26.6514C140.829 26.4941 130.75 34.574 131.474 36.1664Z" fill="white"/>
<path d="M259.002 261.841C258.173 260.268 255.132 258.289 250.955 258.787C250.372 258.885 249.782 259.062 249.334 259.272C246.226 260.74 247.585 264.042 251.844 265.366C256.387 266.775 260.534 264.73 259.002 261.841Z" fill="white"/>
<path d="M194.849 74.4623C198.151 77.6078 203.777 74.364 203.837 69.2789C203.859 66.828 202.223 63.5449 198.495 63.925C193.915 64.6721 191.598 71.3693 194.849 74.4623Z" fill="white"/>
<path d="M248.84 274.153C252.732 274.769 255.071 273.301 253.48 271.244C252.09 269.448 248.324 268.203 245.418 268.577C244.947 268.655 244.163 268.793 243.572 269.206C241.473 270.674 244.424 273.446 248.84 274.153Z" fill="white"/>
<path d="M188.26 52.4046C183.65 53.2958 181.476 60.0454 184.031 62.6142C186.392 64.9995 191.361 62.6208 192.085 57.7519C192.519 54.8947 191.174 52.0376 188.26 52.4046Z" fill="white"/>
<path d="M266.957 250.458C266.307 248.78 263.669 246.513 259.067 247.175C258.85 247.214 258.372 247.326 258.365 247.326C253.68 248.577 254.21 252.758 258.096 254.534C262.833 256.703 268.376 254.147 266.957 250.458Z" fill="white"/>
<path d="M181.544 41.1468C178.01 41.54 174.536 47.8768 176.381 50.557C177.92 52.7982 182.239 50.865 183.666 46.4483C184.376 44.2399 184.406 41.0092 181.544 41.1468Z" fill="white"/>
<path d="M211.973 75.7207C206.093 77.0706 205.772 83.9251 209.164 86.5004C212.676 89.161 218.713 86.4939 218.429 81.2056C218.242 77.6014 215.343 75.1374 211.973 75.7207Z" fill="white"/>
<path d="M249.487 280.661C251.699 280.537 252.139 279.632 250.556 278.466C248.897 277.234 245.535 276.139 242.8 276.434C242.374 276.493 241.672 276.592 241.276 276.919C239.647 278.269 245.4 280.89 249.487 280.661Z" fill="white"/>
<path d="M251.78 284.96C252.572 284.751 252.146 284.246 250.674 283.65C249.105 283.008 245.825 282.11 243.232 282.261C242.829 282.293 242.321 282.378 242.164 282.595C241.394 283.63 249.389 285.596 251.78 284.96Z" fill="white"/>
<path d="M161.003 28.2826C161.287 29.4031 164.171 27.7256 166.935 24.8291C169.109 22.5486 170.708 20.0519 169.617 19.9667C167.062 20.1699 160.547 26.4608 161.003 28.2826Z" fill="white"/>
<mask id="mask1_90_235" style="mask-type:luminance" maskUnits="userSpaceOnUse" x="233" y="285" width="15" height="4">
<path d="M233.758 285.059H247.147V288.125H233.758V285.059Z" fill="white"/>
</mask>
<g mask="url(#mask1_90_235)">
<path d="M234.963 286.238C234.657 286.231 234.657 286.231 234.589 286.29C235.366 286.723 245.483 287.909 246.223 287.647C245.961 287.588 245.617 287.542 242.92 287.181C238.676 286.611 236.338 286.297 234.963 286.238Z" fill="white"/>
</g>
<path d="M178.996 35.1703C180.237 32.7523 180.356 30.1376 178.556 30.2621C175.365 30.7732 171.383 36.6317 172.638 38.9646C173.654 40.8584 177.158 38.768 178.996 35.1703Z" fill="white"/>
<path d="M146.01 25.7929C145.846 26.5662 148.214 25.2163 151.509 22.6606C151.561 22.6213 157.001 18.3487 156.612 17.7851C155.148 17.5492 146.331 24.2137 146.01 25.7929Z" fill="white"/>
<path d="M264.365 160.498C257.506 162.32 257.782 169.286 261.832 172.149C266.569 175.498 274.369 172.425 273.361 166.166C272.71 162.11 268.676 159.567 264.365 160.498Z" fill="white"/>
<path d="M161.793 19.2335C159.686 19.1942 151.669 25.898 151.818 27.569C151.893 28.4406 154.254 27.3396 157.938 24.0566C158.139 23.8796 162.824 19.6791 161.793 19.2335Z" fill="white"/>
<path d="M273.136 191.218C266.972 192.594 266.24 199.003 270.604 201.716C275.475 204.75 282.528 201.139 281.699 196.028C281.31 193.656 278.643 190.248 273.136 191.218Z" fill="white"/>
<path d="M129.021 32.425C129.036 32.3923 129.036 32.3529 129.036 32.3267C128.05 32.7134 120.07 41.0095 120.055 41.6714C120.279 41.5469 120.87 40.9964 123.485 38.3162C127.766 33.9322 128.685 32.923 129.021 32.425Z" fill="white"/>
<path d="M255.464 129.186C248.553 131.041 249.128 138.282 253.581 140.89C258.729 143.898 265.147 140.064 264.146 134.573C263.451 130.792 259.476 128.328 255.464 129.186Z" fill="white"/>
<path d="M228.29 87.4572C222.522 88.912 222.029 95.6355 226.243 98.3222C230.644 101.133 236.412 97.549 235.582 92.5096C235.209 90.203 232.893 86.7888 228.29 87.4572Z" fill="white"/>
<path d="M277 237.411C276.47 235.117 273.578 233.053 269.252 233.748C263.933 234.836 263.365 239.482 267.018 241.697C271.427 244.37 277.964 241.572 277 237.411Z" fill="white"/>
<path d="M134.829 29.2062C134.881 29.1604 140.149 24.6977 140.492 23.9179C140.492 23.9179 140.492 23.9179 140.478 23.8721C139.349 23.8393 130.376 31.526 130.585 32.3583C130.981 32.391 133.417 30.3923 134.829 29.2062Z" fill="white"/>
<path d="M245.501 109.79C250.462 112.647 255.61 108.545 254.683 103.99C254.197 101.625 251.418 98.4661 246.995 99.2C242.183 100.275 240.465 106.893 245.501 109.79Z" fill="white"/>
<path d="M288.499 222.497C288.14 220.105 285.196 217.982 281.064 218.702C276.604 219.692 274.325 224.436 278.33 227.071C282.932 230.105 289.111 226.579 288.499 222.497Z" fill="white"/>
<mask id="mask2_90_235" style="mask-type:luminance" maskUnits="userSpaceOnUse" x="245" y="285" width="12" height="4">
<path d="M245.236 285.059H256.713V288.125H245.236V285.059Z" fill="white"/>
</mask>
<g mask="url(#mask2_90_235)">
<path d="M246.983 286.107C246.542 286.14 246.422 286.172 246.377 286.271C246.788 286.985 254.947 287.765 255.993 287.417C256.001 287.398 256.001 287.372 256.008 287.358C255.919 287.299 255.695 287.155 253.7 286.808C252.96 286.677 249.142 286.035 246.983 286.107Z" fill="white"/>
</g>
<path d="M172.598 27.575C172.874 29.0297 175.661 27.7322 178.119 24.4098C179.681 22.2932 180.563 20.0389 179.255 20.0783C176.887 20.3928 172.224 25.6484 172.598 27.575Z" fill="white"/>
<path d="M148.275 20.3996C150.299 18.9579 153.729 16.4612 153.878 15.8976C153.258 15.4062 143.934 22.0313 143.807 23.0536C143.881 23.1257 144.128 23.3419 148.275 20.3996Z" fill="white"/>
<path d="M207.248 58.2503C209.774 60.3801 214.197 58.27 214.07 54.0564C214.018 52.4116 213.031 49.4168 209.647 49.8428C205.777 50.5571 204.723 56.1206 207.248 58.2503Z" fill="white"/>
<path d="M269.209 265.379C268.963 265.431 268.627 265.503 268.388 265.582C265.354 266.538 266.027 268.989 268.724 270.057C271.81 271.283 276.195 269.998 275.187 267.574C274.709 266.414 272.721 264.874 269.209 265.379Z" fill="white"/>
<path d="M202.763 43.5388C203.032 41.2125 201.941 39.0041 199.633 39.3383C196.076 40.105 194.559 45.3081 196.584 47.3461C198.482 49.2531 202.307 47.4051 202.763 43.5388Z" fill="white"/>
<path d="M265.201 277.875C268.078 278.347 270.633 277.397 269.401 275.752C268.392 274.415 265.777 273.649 263.431 274.009C263.057 274.081 262.422 274.199 261.936 274.501C260.315 275.516 262.116 277.377 265.201 277.875Z" fill="white"/>
<path d="M283.429 257.168C283.07 255.871 281.187 254.154 277.489 254.763C273.103 255.792 273.327 258.97 275.942 260.307C279.401 262.07 284.228 260.045 283.429 257.168Z" fill="white"/>
<path d="M277.12 141.573C271.113 143.04 271.397 149.554 275.155 152.012C279.414 154.797 286.235 151.664 285.033 146.179C284.592 144.135 282.358 140.544 277.12 141.573Z" fill="white"/>
<path d="M176.988 10.3608C175.173 10.4525 168.135 15.7081 168.12 16.9794C168.12 17.6216 170.025 16.7828 173.223 14.2598C173.268 14.2271 177.825 10.6295 176.988 10.3608Z" fill="white"/>
<path d="M162.079 16.009C162.02 16.5463 164.059 15.5044 167.145 13.414C167.638 13.0797 171.972 10.1374 172.032 9.54765C172.017 9.53454 171.994 9.52143 171.987 9.50833C170.619 9.43624 162.199 14.9605 162.079 16.009Z" fill="white"/>
<path d="M283.914 183.06C288.009 185.701 294.808 182.785 293.964 177.536C293.635 175.498 291.595 171.933 286.216 172.994C279.678 174.868 280.672 180.969 283.914 183.06Z" fill="white"/>
<path d="M221.187 69.2005C224.497 71.5924 229.01 68.7352 228.397 64.633C228.121 62.785 226.402 60.0328 222.951 60.5373C219.05 61.3368 217.93 66.8414 221.187 69.2005Z" fill="white"/>
<path d="M300.848 205.819C300.43 203.191 297.142 201.474 293.945 202.221C289.208 203.578 287.676 208.342 291.225 210.727C295.558 213.63 301.491 209.869 300.848 205.819Z" fill="white"/>
<path d="M265.775 283.237C267.149 283.027 267.336 282.398 266.23 281.703C265.319 281.133 262.973 280.321 260.537 280.583C259.745 280.694 259.409 280.904 259.267 281.068C258.318 282.149 262.876 283.663 265.775 283.237Z" fill="white"/>
<path d="M189.369 36.4607C190.625 38.3545 193.86 36.4803 194.869 33.289C195.548 31.1593 195.018 28.9378 193.195 29.154C190.416 29.7241 187.987 34.3637 189.369 36.4607Z" fill="white"/>
<path d="M287.898 242.24C284.244 243.197 282.817 246.362 285.216 248.184C288.6 250.746 294.002 248.23 293.756 245.071C293.599 243.046 290.7 241.644 287.898 242.24Z" fill="white"/>
<path d="M241.8 80.7658H241.808C241.808 80.7658 241.808 80.7658 241.808 80.7593C241.815 80.7658 241.815 80.7593 241.815 80.7593C241.823 80.7593 241.823 80.7593 241.823 80.7593C244.931 79.8746 245.633 77.1158 245.342 75.4775C244.863 72.7776 241.852 70.7658 239.148 71.336C238.602 71.4932 237.459 71.8078 236.51 73.1118C233.88 76.7226 237.19 81.5129 241.8 80.7658Z" fill="white"/>
<path d="M265.858 120.576C270.64 123.742 275.952 119.895 275.01 115.393C274.45 112.713 271.424 110.249 267.516 110.957C262.787 112.333 261.831 117.903 265.858 120.576Z" fill="white"/>
<path d="M158.883 14.2798C159.309 14.3978 162.297 12.6416 163.567 11.8814C163.62 11.8486 168.857 8.69007 169.007 8.19204C167.991 7.97579 158.815 13.4935 158.883 14.2798Z" fill="white"/>
<path d="M190.505 19.4824C188.413 19.8887 185.208 24.1547 186.03 26.0551C186.762 27.7458 189.631 25.5636 190.879 22.9162C191.693 21.2058 191.701 19.3775 190.505 19.4824Z" fill="white"/>
<path d="M183.699 10.6483C182.25 10.6811 176.437 15.491 176.474 17.0507C176.497 18.0533 179.097 16.3691 181.234 14.3115C182.496 13.0926 184.521 10.7663 183.699 10.6483Z" fill="white"/>
<path d="M266.238 285.667C264.811 285.254 262.166 284.914 260.754 285.064C260.492 285.097 260.059 285.163 259.992 285.346C259.693 286.185 266.014 286.834 267.172 286.368C267.643 286.178 266.993 285.884 266.238 285.667Z" fill="white"/>
<path d="M142.125 20.6496C142.14 20.63 142.154 20.6038 142.169 20.5841C141.564 20.82 134.093 26.8357 133.704 27.5762C133.839 27.491 133.839 27.491 136.924 24.9681C140.869 21.7374 141.811 20.9707 142.125 20.6496Z" fill="white"/>
<path d="M148.315 17.3596C153.172 14.1028 153.538 13.7292 153.8 13.454C153.284 13.205 144.938 18.821 144.871 19.4632C144.953 19.4697 145.148 19.4828 148.315 17.3596Z" fill="white"/>
<path d="M178.94 6.86105C179.142 7.08386 180.427 6.46787 183.513 4.65267C184.163 4.26604 187.435 2.33289 187.585 1.96592C187.577 1.95937 187.562 1.95281 187.555 1.94626C186.942 1.87418 179.059 5.93707 178.94 6.86105Z" fill="white"/>
<path d="M305.379 231.133C305.387 231.094 305.14 226.972 299.955 228.198C293.985 229.803 296.57 234.004 297.131 234.508C299.066 236.251 305.118 235.327 305.379 231.133Z" fill="white"/>
<path d="M191.498 10.5904C189.914 10.8722 186.328 14.7975 186.515 16.0491C186.664 16.9993 188.711 15.9705 190.43 13.749C190.841 13.2117 192.851 10.5315 191.498 10.5904Z" fill="white"/>
<mask id="mask3_90_235" style="mask-type:luminance" maskUnits="userSpaceOnUse" x="262" y="286" width="11" height="3">
<path d="M262.448 286.736H272.011V288.125H262.448V286.736Z" fill="white"/>
</mask>
<g mask="url(#mask3_90_235)">
<path d="M269.158 287.489C266.498 287.391 265.303 287.371 264.429 287.437C263.98 287.476 263.958 287.502 263.936 287.548C264.526 287.85 270.1 287.771 270.907 287.594C270.862 287.561 270.839 287.548 269.158 287.489Z" fill="white"/>
</g>
<path d="M304.98 192.699C305.779 193.223 307.968 194.259 311.091 192.45C312.115 191.86 313.766 190.471 313.34 187.856C312.788 184.429 309.649 183.964 307.139 184.613C302.066 186.179 302.589 191.12 304.98 192.699Z" fill="white"/>
<path d="M297.13 162.936C299.618 164.744 306.552 163.716 305.857 157.844C305.849 157.792 304.96 152.53 299.132 153.834C292.916 155.478 295.045 161.415 297.13 162.936Z" fill="white"/>
<path d="M287.941 131.481C288.419 131.769 290.96 133.113 293.844 131.356C295.114 130.583 296.489 129.142 295.876 126.651C295.084 123.414 292.447 121.946 289.002 122.818C283.944 124.41 285.087 129.764 287.941 131.481Z" fill="white"/>
<path d="M257.127 90.6284C260.011 92.1028 265.174 90.7333 264.061 86.1854C263.485 83.8263 261.206 81.7621 257.979 82.3716C252.891 83.6232 254.221 89.1343 257.127 90.6284Z" fill="white"/>
<path d="M167.631 6.64434C167.638 6.63778 167.616 6.62468 167.608 6.61157C166.771 6.63778 159.599 10.4844 158.605 11.6312C159.038 11.5788 160.062 11.0677 162.677 9.61287C166.39 7.54866 167.504 6.88025 167.631 6.64434Z" fill="white"/>
<path d="M278.867 278.066C278.591 278.118 278.12 278.217 277.784 278.426C276.947 278.944 277.231 280.019 279.353 280.451C281.169 280.818 283.642 280.228 282.805 279.029C282.289 278.295 280.877 277.712 278.867 278.066Z" fill="white"/>
<path d="M184.319 7.39194C184.999 7.17569 185.925 6.75629 188.115 5.22288C189.9 3.96469 191.948 2.44438 191.529 2.35919H191.522C190.625 2.40506 183.564 6.74319 184.319 7.39194Z" fill="white"/>
<mask id="mask4_90_235" style="mask-type:luminance" maskUnits="userSpaceOnUse" x="174" y="0" width="12" height="7">
<path d="M174.454 0H185.93V6.57927H174.454V0Z" fill="white"/>
</mask>
<g mask="url(#mask4_90_235)">
<path d="M175.563 5.90425C176.318 5.72732 177.528 5.17031 180.195 3.80072C184.686 1.4875 184.738 1.35643 184.79 1.22537C184.79 1.22537 184.79 1.22537 184.783 1.22537C184.125 1.14674 176.086 4.98683 175.563 5.90425Z" fill="white"/>
</g>
<path d="M284.938 270.681C284.796 270.707 284.662 270.74 284.527 270.779C282.727 271.271 281.793 272.876 284.072 273.859C286.081 274.724 289.473 273.682 288.861 271.992C288.741 271.684 288.017 270.15 284.938 270.681Z" fill="white"/>
<path d="M207.298 33.0273C208.292 34.1545 211.281 33.8006 211.624 30.2423C211.632 30.2095 211.609 27.0706 209.233 27.3655C206.529 27.8701 206.17 31.7429 207.298 33.0273Z" fill="white"/>
<path d="M217.788 42.8502C217.803 42.8633 219.327 43.9708 220.754 43.0861C221.27 42.7716 222.63 41.9263 222.48 39.9472C222.473 39.7965 222.167 36.2775 219.066 36.7428C216.032 37.3719 215.958 41.4938 217.788 42.8502Z" fill="white"/>
<path d="M293.423 261.29C290.405 262.037 290.27 264.114 291.787 265.077C293.483 266.159 297.66 265.176 297.316 262.836C297.099 261.408 295.612 260.818 293.423 261.29Z" fill="white"/>
<path d="M277.691 100.943C280.015 102.247 285.178 101.382 284.281 96.7362C284.139 95.9761 282.495 92.326 278.244 93.4073C273.335 94.8882 275.652 99.803 277.691 100.943Z" fill="white"/>
<path d="M313.112 212.444C308.15 213.912 309.413 217.68 310.205 218.558C312.051 220.629 317.751 219.357 318.05 215.216C318.095 214.574 317.385 211.349 313.112 212.444Z" fill="white"/>
<path d="M151.85 13.4596C155.795 10.9104 155.795 10.9104 156.041 10.727C156.064 10.7007 156.094 10.6745 156.109 10.6483C155.481 10.8842 149.803 14.6064 149.362 15.0716C150.243 14.5933 151.021 13.9969 151.85 13.4596Z" fill="white"/>
<mask id="mask5_90_235" style="mask-type:luminance" maskUnits="userSpaceOnUse" x="174" y="0" width="11" height="5">
<path d="M174.454 0H184.018V4.90169H174.454V0Z" fill="white"/>
</mask>
<g mask="url(#mask5_90_235)">
<path d="M183.009 0.340995C182.71 0.190275 175.493 3.29643 174.641 4.12211C174.873 4.18109 175.979 3.70271 178.534 2.53627C182.113 0.898004 182.905 0.504821 183.009 0.340995Z" fill="white"/>
</g>
<path d="M278.734 284.638C279.93 284.494 280.162 284.219 279.482 283.786C279.467 283.773 277.965 282.954 275.821 283.288C275.566 283.334 275.029 283.426 274.857 283.629C274.453 284.114 276.635 284.9 278.734 284.638Z" fill="white"/>
<path d="M204.213 21.0673C204.474 19.8026 204.474 18.3282 203.002 18.4789C200.761 18.8524 199.872 22.6139 200.686 23.5378C201.456 24.4094 203.66 23.7803 204.213 21.0673Z" fill="white"/>
<path d="M307.838 251.656C307.8 250.713 307.277 249.232 304.221 249.881C299.753 251.086 301.584 253.819 301.995 254.14C303.482 255.326 307.935 254.232 307.838 251.656Z" fill="white"/>
<path d="M194.345 4.87586C194.435 4.79722 194.547 4.69237 194.637 4.61374C196.692 2.73956 196.572 2.52331 196.296 2.52986C195.235 2.68058 191.14 6.00954 191.08 6.77625C191.051 7.117 191.835 7.12356 194.345 4.87586Z" fill="white"/>
<path d="M231.561 52.7453C233.489 53.8659 237.157 52.8043 236.358 49.4229C235.947 47.6601 234.639 45.9629 232.219 46.4806C228.535 47.4504 229.805 51.723 231.561 52.7453Z" fill="white"/>
<path d="M248.109 62.4904C250.418 63.6831 253.93 62.2086 252.876 59.0894C252.443 57.8181 251.292 55.7801 248.378 56.3633C244.613 57.2808 246.219 61.5206 248.109 62.4904Z" fill="white"/>
<path d="M309.81 141.591C311.88 143.262 317.185 142.705 316.722 137.469C316.595 135.988 314.555 134.783 314.532 134.776C313.232 134.062 312 134.357 311.335 134.514C306.769 135.838 308.062 140.182 309.81 141.591Z" fill="white"/>
<path d="M275.881 286.27C275.702 286.297 275.321 286.356 275.328 286.434C275.343 286.559 276.217 286.696 277.6 286.703C278.272 286.709 279.863 286.624 279.946 286.467C279.901 286.434 279.826 286.401 279.288 286.323C279.273 286.323 277.353 286.074 275.881 286.27Z" fill="white"/>
<path d="M197.741 14.2658C197.831 14.4952 198.137 14.9736 198.974 14.4297C199.437 14.1282 200.117 13.5843 200.685 12.3458C201.088 11.4611 201.619 9.98669 200.573 10.0522C199.175 10.2488 197.345 13.2829 197.741 14.2658Z" fill="white"/>
<path d="M318.826 172.916C319.969 173.617 322.24 173.65 323.04 173.158C323.78 172.706 326.051 171.31 325.588 168.768C325.214 166.723 323.496 165.033 320.5 165.871C315.763 167.405 317.13 171.874 318.826 172.916Z" fill="white"/>
<path d="M164.007 6.98492C164.044 6.96526 167.78 5.05177 168.198 4.70446C168.191 4.6979 168.198 4.6848 168.198 4.67169C167.586 4.76344 161.937 7.64023 161.19 8.3283C161.19 8.33485 161.197 8.34796 161.197 8.36106C161.429 8.30209 162.116 7.95477 164.007 6.98492Z" fill="white"/>
<path d="M326.891 195.418C323.364 196.44 323.043 199.638 324.709 201.106C326.555 202.738 330.963 200.995 330.903 197.994C330.888 197.397 330.642 194.481 326.891 195.418Z" fill="white"/>
<path d="M319.826 238.48C319.834 237.713 319.535 235.996 316.606 236.671C313.191 237.582 313.281 240.131 314.23 241.016C315.687 242.359 319.804 240.885 319.826 238.48Z" fill="white"/>
<path d="M299.583 110.805C301.989 112.142 306.143 110.497 305.097 107.182C304.821 106.323 303.663 103.597 300.114 104.469C296.101 105.635 297.603 109.698 299.583 110.805Z" fill="white"/>
<path d="M266.866 71.9789C268.592 72.9422 272.357 72.3393 271.446 68.971C271.438 68.9382 270.37 65.5831 266.97 66.4612C263.242 67.5818 265.528 71.2318 266.866 71.9789Z" fill="white"/>
<path d="M201.06 4.30545C201.224 4.11541 202.614 2.43127 201.934 2.43127C200.933 2.61476 198.826 5.14424 198.863 5.70125C198.863 5.71436 199.162 6.57936 201.06 4.30545Z" fill="white"/>
<path d="M291.354 280.871C291.249 280.891 291.144 280.917 291.04 280.95C290.083 281.232 290.322 281.664 290.786 281.874C291.54 282.208 293.401 281.933 293.139 281.218C293.132 281.212 292.736 280.622 291.354 280.871Z" fill="white"/>
<path d="M329.92 221.933C328.097 222.522 326.82 224.508 328 225.733C329.203 226.978 332.446 225.818 332.677 223.571C332.857 221.86 331.422 221.513 329.92 221.933Z" fill="white"/>
<path d="M287.723 81.3172C289.919 82.274 292.385 80.7536 291.354 78.4077C290.681 76.8808 289.142 76.16 287.521 76.6187C284.57 77.5951 286.124 80.6226 287.723 81.3172Z" fill="white"/>
<path d="M297.636 274.914C296.224 275.229 296 276.002 296.463 276.402C297.27 277.096 299.504 276.48 299.452 275.589C299.43 275.209 299.019 274.646 297.636 274.914Z" fill="white"/>
<path d="M332.253 151.553C333.627 152.457 336.877 151.422 336.399 148.807C336.16 147.496 335.391 146.074 333.067 146.703C330.041 147.654 330.96 150.701 332.253 151.553Z" fill="white"/>
<path d="M340.48 177.43C337.574 178.341 338.246 181.14 339.232 181.769C339.247 181.775 340.51 182.522 342.056 181.513C342.408 181.284 343.469 180.602 343.297 179.128C343.2 178.23 342.706 176.821 340.48 177.43Z" fill="white"/>
<path d="M306.354 266.867C304.195 267.438 305.039 268.722 305.047 268.735C305.607 269.351 307.998 268.879 308.132 267.634C308.162 267.267 308.073 266.468 306.354 266.867Z" fill="white"/>
<path d="M239.543 37.1364C240.507 37.6213 242.509 37.1364 241.837 35.295C241.628 34.7118 240.963 33.3881 239.423 33.7485C237.339 34.3383 238.624 36.6777 239.543 37.1364Z" fill="white"/>
<path d="M289.621 284.625C289.441 284.553 288.918 284.396 288.007 284.553C287.857 284.579 287.559 284.645 287.499 284.73C287.357 284.959 288.754 285.097 289.546 284.861C289.793 284.782 289.815 284.71 289.621 284.625Z" fill="white"/>
<path d="M226.016 28.4137C226.703 28.9248 228.609 28.8724 228.332 26.8606C228.332 26.841 227.959 24.8685 226.285 25.2224C224.641 25.6614 225.224 27.8239 226.016 28.4137Z" fill="white"/>
<path d="M211.211 10.7015C211.294 10.2363 211.406 9.16813 210.584 9.26642C209.538 9.46957 209.284 11.3568 209.695 11.7762C210.076 12.1694 210.987 11.9204 211.211 10.7015Z" fill="white"/>
<path d="M216.068 19.9864C216.277 20.1371 216.83 20.4386 217.473 19.9274C217.749 19.7112 218.056 19.2787 217.988 18.4595C217.951 18.0598 217.749 16.782 216.606 16.9982C215.134 17.3652 215.418 19.5015 216.068 19.9864Z" fill="white"/>
<path d="M322.087 120.321C323.267 120.937 326.465 120.458 325.755 117.575C325.748 117.555 325.023 115.104 322.415 115.806C319.457 116.73 320.869 119.685 322.087 120.321Z" fill="white"/>
<path d="M256.035 45.7398C257.17 46.1199 257.469 45.825 257.858 45.4515C258.045 45.268 258.44 44.7372 258.007 43.8198C257.529 42.8171 256.49 42.2929 255.474 42.5485C255.422 42.5681 255.362 42.5812 255.31 42.6009C253.965 43.1055 254.451 45.2156 256.035 45.7398Z" fill="white"/>
<path d="M317.441 256.617C315.924 257.024 315.461 258.124 315.88 258.668C316.283 259.186 317.486 258.924 317.501 258.917C317.508 258.911 318.771 258.328 318.95 257.574C319.033 257.214 318.943 256.277 317.441 256.617Z" fill="white"/>
<path d="M330.008 244.567C328.469 245.046 328.573 246.199 328.783 246.442C329.209 246.946 330.949 246.481 331.211 245.4C331.263 245.183 331.45 244.161 330.008 244.567Z" fill="white"/>
<mask id="mask6_90_235" style="mask-type:luminance" maskUnits="userSpaceOnUse" x="340" y="204" width="6" height="6">
<path d="M340.865 204.535H345.863V209.567H340.865V204.535Z" fill="white"/>
</mask>
<g mask="url(#mask6_90_235)">
<path d="M343.961 205.787C342.399 206.279 342.07 207.923 342.773 208.605C343.542 209.352 345.761 208.389 345.828 206.954C345.858 206.311 345.657 205.309 343.961 205.787Z" fill="white"/>
</g>
<path d="M309.604 90.2494C310.725 90.7408 312.757 89.961 312.017 88.2966C311.734 87.6544 311.031 86.6321 309.544 87.0318C307.363 87.7199 308.64 89.83 309.604 90.2494Z" fill="white"/>
<path d="M274.695 54.0763C274.769 54.1025 275.487 54.3319 275.972 53.9256C276.361 53.5979 276.458 53.2047 276.249 52.7591C276.241 52.746 275.606 51.4158 274.306 51.7238C274.239 51.7434 274.179 51.7631 274.119 51.7893C272.901 52.2939 273.783 53.7552 274.695 54.0763Z" fill="white"/>
<path d="M12.612 359.316C10.1389 359.316 7.7555 359.008 5.4692 358.399C3.17542 357.789 1.35236 356.976 0 355.961L2.06216 351.924C3.37716 352.835 4.97608 353.575 6.87386 354.152C8.76417 354.716 10.6769 354.991 12.612 354.991C14.9805 354.991 16.7438 354.663 17.9019 353.995C19.075 353.333 19.6652 352.461 19.6652 351.374C19.6652 350.574 19.3365 349.906 18.679 349.382C18.0215 348.857 17.1921 348.458 16.1984 348.176C15.1972 347.881 13.8374 347.54 12.104 347.153C9.66823 346.649 7.69573 346.144 6.18647 345.633C4.69215 345.129 3.3921 344.342 2.30125 343.274C1.22534 342.193 0.687386 340.725 0.687386 338.87C0.687386 337.337 1.16557 335.935 2.12193 334.676C3.07829 333.405 4.52031 332.396 6.45545 331.662C8.38312 330.915 10.7591 330.535 13.5684 330.535C15.4961 330.535 17.4088 330.745 19.3066 331.164C21.1969 331.583 22.8182 332.199 24.178 332.999L22.3251 337.036C20.9055 336.321 19.4411 335.777 17.9318 335.41C16.4151 335.03 14.9432 334.834 13.5086 334.834C11.1775 334.834 9.42914 335.188 8.27852 335.882C7.14283 336.583 6.57499 337.501 6.57499 338.634C6.57499 339.441 6.90374 340.096 7.56124 340.6C8.21874 341.112 9.04062 341.511 10.0418 341.806C11.0355 342.108 12.4028 342.435 14.1362 342.802C16.5047 343.274 18.4473 343.772 19.9641 344.296C21.4957 344.821 22.8033 345.62 23.8792 346.682C24.9551 347.75 25.493 349.191 25.493 351.007C25.493 352.547 25.0149 353.942 24.0585 355.201C23.1021 356.459 21.6452 357.468 19.6951 358.215C17.76 358.949 15.3989 359.316 12.612 359.316Z" fill="white"/>
<path d="M46.2716 359.316C43.0214 359.316 40.0926 358.7 37.485 357.454C34.8699 356.216 32.8227 354.506 31.3284 352.317C29.8341 350.115 29.0869 347.651 29.0869 344.925C29.0869 342.199 29.8341 339.735 31.3284 337.533C32.8227 335.331 34.8699 333.621 37.485 332.396C40.0926 331.157 43.0214 330.535 46.2716 330.535C49.5366 330.535 52.473 331.157 55.088 332.396C57.6956 333.621 59.7503 335.331 61.2446 337.533C62.7389 339.722 63.4861 342.186 63.4861 344.925C63.4861 347.671 62.7389 350.135 61.2446 352.317C59.7503 354.506 57.6956 356.216 55.088 357.454C52.473 358.7 49.5366 359.316 46.2716 359.316ZM46.2716 354.755C48.401 354.755 50.3137 354.335 52.0097 353.496C53.7207 352.658 55.0656 351.491 56.0444 349.984C57.0157 348.483 57.5088 346.799 57.5088 344.925C57.5088 343.057 57.0157 341.373 56.0444 339.866C55.0656 338.365 53.7207 337.192 52.0097 336.354C50.3137 335.515 48.401 335.095 46.2716 335.095C44.1571 335.095 42.2444 335.515 40.5334 336.354C38.8373 337.192 37.4999 338.365 36.5286 339.866C35.5498 341.373 35.0642 343.057 35.0642 344.925C35.0642 346.799 35.5498 348.483 36.5286 349.984C37.4999 351.491 38.8373 352.658 40.5334 353.496C42.2444 354.335 44.1571 354.755 46.2716 354.755Z" fill="white"/>
<path d="M75.6759 335.279V343.798H91.0972V348.202H75.6759V358.923H69.7285V330.928H93.0399V335.279H75.6759Z" fill="white"/>
<path d="M105.259 335.331H94.6797V330.927H121.787V335.331H111.207V358.922H105.259V335.331Z" fill="white"/>
<path d="M148.03 344.611H153.648V355.751C151.99 356.904 150.07 357.789 147.88 358.398C145.684 359.008 143.435 359.316 141.126 359.316C137.876 359.316 134.947 358.7 132.339 357.455C129.724 356.216 127.677 354.506 126.183 352.317C124.689 350.135 123.941 347.671 123.941 344.925C123.941 342.186 124.689 339.722 126.183 337.533C127.677 335.332 129.739 333.621 132.369 332.396C134.999 331.157 137.943 330.535 141.216 330.535C143.905 330.535 146.341 330.921 148.538 331.688C150.727 332.461 152.558 333.595 154.037 335.096L150.301 338.293C147.865 336.164 144.937 335.096 141.515 335.096C139.258 335.096 137.256 335.508 135.507 336.328C133.752 337.153 132.377 338.313 131.383 339.814C130.404 341.301 129.919 343.005 129.919 344.925C129.919 346.799 130.404 348.483 131.383 349.984C132.377 351.472 133.752 352.645 135.507 353.497C137.256 354.335 139.243 354.755 141.455 354.755C143.943 354.755 146.132 354.276 148.03 353.313V344.611Z" fill="white"/>
<path d="M182.122 352.449H166.162L163.024 358.923H156.897L171.273 330.929H177.101L191.536 358.923H185.319L182.122 352.449ZM180.179 348.36L174.142 336.119L168.165 348.36H180.179Z" fill="white"/>
<path d="M224.902 358.923L224.842 340.365L214.352 355.725H211.722L201.232 340.601V358.923H195.554V330.928H200.455L213.127 349.487L225.589 330.928H230.461L230.491 358.923H224.902Z" fill="white"/>
<path d="M263.05 354.572V358.923H239.081V330.929H262.392V335.28H245.028V342.567H260.45V346.839H245.028V354.572H263.05Z" fill="white"/>
<path d="M279.54 359.316C277.067 359.316 274.684 359.008 272.397 358.398C270.104 357.789 268.281 356.976 266.928 355.961L268.99 351.924C270.305 352.835 271.904 353.575 273.802 354.152C275.692 354.715 277.605 354.991 279.54 354.991C281.909 354.991 283.672 354.663 284.83 353.995C286.003 353.333 286.593 352.461 286.593 351.373C286.593 350.574 286.265 349.906 285.607 349.381C284.95 348.857 284.12 348.457 283.127 348.175C282.125 347.881 280.766 347.54 279.032 347.153C276.596 346.649 274.624 346.144 273.115 345.633C271.62 345.128 270.32 344.342 269.229 343.274C268.154 342.193 267.616 340.725 267.616 338.87C267.616 337.337 268.094 335.934 269.05 334.676C270.007 333.405 271.449 332.396 273.384 331.662C275.311 330.915 277.687 330.535 280.497 330.535C282.424 330.535 284.337 330.744 286.235 331.164C288.125 331.583 289.746 332.199 291.106 332.999L289.253 337.035C287.834 336.321 286.369 335.777 284.86 335.41C283.343 335.03 281.871 334.833 280.437 334.833C278.106 334.833 276.357 335.187 275.207 335.882C274.071 336.583 273.503 337.501 273.503 338.634C273.503 339.44 273.832 340.096 274.489 340.6C275.147 341.111 275.969 341.511 276.97 341.806C277.964 342.107 279.331 342.435 281.064 342.802C283.433 343.274 285.376 343.772 286.892 344.296C288.424 344.82 289.731 345.62 290.807 346.681C291.883 347.75 292.421 349.191 292.421 351.006C292.421 352.546 291.943 353.942 290.987 355.2C290.03 356.459 288.573 357.468 286.623 358.215C284.688 358.949 282.327 359.316 279.54 359.316Z" fill="white"/>
<path d="M304.773 335.331H294.193V330.927H321.3V335.331H310.721V358.922H304.773V335.331Z" fill="white"/>
<path d="M339.473 359.316C335.065 359.316 331.628 358.235 329.162 356.066C326.689 353.903 325.457 350.791 325.457 346.734V330.928H331.404V346.525C331.404 352.016 334.101 354.755 339.503 354.755C344.883 354.755 347.572 352.016 347.572 346.525V330.928H353.43V346.734C353.43 350.791 352.205 353.903 349.754 356.066C347.303 358.235 343.874 359.316 339.473 359.316Z" fill="white"/>
<path d="M361.693 330.929H375.65C379.057 330.929 382.083 331.518 384.736 332.685C387.381 333.838 389.435 335.477 390.892 337.587C392.342 339.703 393.074 342.148 393.074 344.926C393.074 347.705 392.342 350.155 390.892 352.265C389.435 354.382 387.381 356.027 384.736 357.193C382.083 358.347 379.057 358.923 375.65 358.923H361.693V330.929ZM375.381 354.52C377.727 354.52 379.79 354.127 381.568 353.34C383.339 352.554 384.706 351.44 385.662 349.985C386.619 348.537 387.097 346.853 387.097 344.926C387.097 343.006 386.619 341.322 385.662 339.867C384.706 338.419 383.339 337.298 381.568 336.512C379.79 335.726 377.727 335.332 375.381 335.332H367.641V354.52H375.381Z" fill="white"/>
<path d="M399.338 330.929H405.285V358.923H399.338V330.929Z" fill="white"/>
<path d="M428.786 359.316C425.536 359.316 422.607 358.7 419.999 357.454C417.384 356.216 415.337 354.506 413.843 352.317C412.348 350.115 411.601 347.651 411.601 344.925C411.601 342.199 412.348 339.735 413.843 337.533C415.337 335.331 417.384 333.621 419.999 332.396C422.607 331.157 425.536 330.535 428.786 330.535C432.051 330.535 434.987 331.157 437.602 332.396C440.21 333.621 442.264 335.331 443.759 337.533C445.253 339.722 446 342.186 446 344.925C446 347.671 445.253 350.135 443.759 352.317C442.264 354.506 440.21 356.216 437.602 357.454C434.987 358.7 432.051 359.316 428.786 359.316ZM428.786 354.755C430.915 354.755 432.828 354.335 434.524 353.496C436.235 352.658 437.58 351.491 438.559 349.984C439.53 348.483 440.023 346.799 440.023 344.925C440.023 343.057 439.53 341.373 438.559 339.866C437.58 338.365 436.235 337.192 434.524 336.354C432.828 335.515 430.915 335.095 428.786 335.095C426.671 335.095 424.759 335.515 423.048 336.354C421.351 337.192 420.014 338.365 419.043 339.866C418.064 341.373 417.578 343.057 417.578 344.925C417.578 346.799 418.064 348.483 419.043 349.984C420.014 351.491 421.351 352.658 423.048 353.496C424.759 354.335 426.671 354.755 428.786 354.755Z" fill="white"/>
<path d="M136.535 393.555H141.316C142.49 393.555 143.528 393.758 144.425 394.158C145.336 394.545 146.046 395.102 146.547 395.836C147.04 396.57 147.294 397.408 147.294 398.352C147.294 399.296 147.04 400.134 146.547 400.868C146.046 401.589 145.336 402.146 144.425 402.546C143.528 402.952 142.49 403.149 141.316 403.149H136.535V393.555ZM141.227 401.629C142.019 401.629 142.729 401.497 143.349 401.235C143.961 400.973 144.432 400.6 144.753 400.108C145.067 399.604 145.232 399.02 145.232 398.352C145.232 397.69 145.067 397.113 144.753 396.622C144.432 396.117 143.961 395.731 143.349 395.469C142.729 395.193 142.019 395.049 141.227 395.049H138.567V401.629H141.227Z" fill="white"/>
<path d="M164.924 401.654V403.148H156.705V393.554H164.685V395.048H158.737V397.539H164.027V399.006H158.737V401.654H164.924Z" fill="white"/>
<path d="M184.472 393.555L179.69 403.149H177.688L172.906 393.555H175.117L178.763 400.947L182.44 393.555H184.472Z" fill="white"/>
<path d="M201.351 401.654V403.148H193.132V393.554H201.111V395.049H195.164V397.539H200.454V399.007H195.164V401.654H201.351Z" fill="white"/>
<path d="M210.883 393.554H212.915V401.628H218.653V403.148H210.883V393.554Z" fill="white"/>
<path d="M232.627 403.28C231.506 403.28 230.505 403.071 229.608 402.651C228.712 402.232 228.002 401.649 227.486 400.895C226.986 400.128 226.739 399.283 226.739 398.352C226.739 397.428 226.986 396.59 227.486 395.836C228.002 395.069 228.712 394.473 229.608 394.054C230.505 393.634 231.506 393.425 232.627 393.425C233.74 393.425 234.749 393.634 235.645 394.054C236.542 394.473 237.237 395.063 237.737 395.81C238.253 396.563 238.514 397.409 238.514 398.352C238.514 399.296 238.253 400.148 237.737 400.895C237.237 401.649 236.542 402.232 235.645 402.651C234.749 403.071 233.74 403.28 232.627 403.28ZM232.627 401.734C233.359 401.734 234.017 401.596 234.599 401.314C235.175 401.02 235.63 400.62 235.974 400.109C236.31 399.584 236.482 399.001 236.482 398.352C236.482 397.71 236.31 397.134 235.974 396.622C235.63 396.098 235.175 395.698 234.599 395.417C234.017 395.122 233.359 394.971 232.627 394.971C231.91 394.971 231.252 395.122 230.654 395.417C230.072 395.698 229.616 396.098 229.28 396.622C228.958 397.134 228.801 397.71 228.801 398.352C228.801 399.001 228.958 399.584 229.28 400.109C229.616 400.62 230.072 401.02 230.654 401.314C231.252 401.596 231.91 401.734 232.627 401.734Z" fill="white"/>
<path d="M252.458 393.554C253.392 393.554 254.206 393.698 254.908 393.973C255.626 394.236 256.171 394.629 256.552 395.153C256.926 395.664 257.12 396.267 257.12 396.962C257.12 397.663 256.926 398.272 256.552 398.797C256.171 399.308 255.626 399.701 254.908 399.976C254.206 400.238 253.392 400.369 252.458 400.369H249.977V403.148H247.945V393.554H252.458ZM252.368 398.875C253.242 398.875 253.907 398.711 254.37 398.377C254.826 398.049 255.058 397.578 255.058 396.962C255.058 396.352 254.826 395.88 254.37 395.546C253.907 395.219 253.242 395.048 252.368 395.048H249.977V398.875H252.368Z" fill="white"/>
<path d="M274.78 401.654V403.148H266.561V393.554H274.541V395.048H268.593V397.538H273.883V399.006H268.593V401.654H274.78Z" fill="white"/>
<path d="M291.482 403.148L289.241 400.343C289.136 400.343 289.002 400.343 288.822 400.343H286.342V403.148H284.31V393.554H288.822C289.756 393.554 290.571 393.698 291.273 393.973C291.99 394.236 292.536 394.629 292.917 395.153C293.29 395.664 293.485 396.267 293.485 396.962C293.485 397.683 293.275 398.298 292.857 398.823C292.454 399.347 291.886 399.74 291.154 400.002L293.664 403.148H291.482ZM291.423 396.962C291.423 396.352 291.191 395.88 290.735 395.546C290.272 395.219 289.607 395.048 288.733 395.048H286.342V398.875H288.733C289.607 398.875 290.272 398.711 290.735 398.377C291.191 398.049 291.423 397.578 291.423 396.962Z" fill="white"/>
<path d="M306.422 403.28C305.563 403.28 304.734 403.175 303.942 402.966C303.165 402.756 302.545 402.481 302.089 402.127L302.806 400.738C303.239 401.052 303.792 401.314 304.45 401.524C305.107 401.721 305.765 401.812 306.422 401.812C307.214 401.812 307.812 401.701 308.216 401.472C308.634 401.249 308.843 400.941 308.843 400.554C308.843 400.279 308.724 400.05 308.485 399.873C308.26 399.702 307.984 399.571 307.648 399.479C307.304 399.375 306.841 399.257 306.243 399.112C305.406 398.942 304.726 398.765 304.211 398.588C303.688 398.418 303.239 398.143 302.866 397.776C302.507 397.409 302.328 396.911 302.328 396.282C302.328 395.757 302.485 395.279 302.806 394.84C303.142 394.407 303.643 394.067 304.3 393.818C304.973 393.555 305.795 393.424 306.751 393.424C307.409 393.424 308.051 393.497 308.694 393.634C309.351 393.778 309.904 393.988 310.367 394.263L309.74 395.652C309.262 395.41 308.761 395.227 308.245 395.102C307.722 394.964 307.214 394.892 306.721 394.892C305.922 394.892 305.324 395.017 304.928 395.259C304.547 395.489 304.36 395.803 304.36 396.203C304.36 396.485 304.465 396.714 304.689 396.884C304.906 397.042 305.182 397.173 305.526 397.278C305.884 397.382 306.348 397.5 306.93 397.618C307.745 397.795 308.41 397.972 308.933 398.143C309.471 398.32 309.919 398.588 310.278 398.955C310.651 399.322 310.846 399.814 310.846 400.423C310.846 400.967 310.674 401.458 310.337 401.891C310.016 402.31 309.516 402.651 308.843 402.913C308.186 403.156 307.379 403.28 306.422 403.28Z" fill="white"/>
</svg>
